<svg width="355" height="336" viewBox="0 0 355 336" fill="none" xmlns="http://www.w3.org/2000/svg">
<path d="M2.09195 198.532L66.4393 198.151L130.787 197.932L130.203 198.378L134.946 179.769L135.611 177.134L136.235 179.778L145.552 219.216L144.133 219.281L153.214 155.59L153.879 150.928L154.779 155.55L163.706 201.419L162.198 201.329L169.366 179.445L170.112 177.183L170.801 179.461L180.118 210.086L178.739 210.103L182.112 198.524L182.258 198.013L182.785 198.021L267.436 198.264L352.078 198.718L267.436 199.181L182.785 199.424L183.466 198.913L180.118 210.5L179.453 212.811L178.747 210.508L169.358 179.899L170.793 179.915L163.682 201.808L162.75 204.662L162.174 201.719L153.222 155.858L154.787 155.818L145.568 219.484L145.017 223.278L144.149 219.549L134.938 180.086L136.235 180.102L131.371 198.678L131.249 199.14L130.787 199.132L66.4393 198.913L2.09195 198.532Z" fill="#EBEBEB"/>
<path d="M55.0147 68.759L3.16223 68.6779C3.16223 68.6779 5.74877 65.3292 8.58668 64.9076C8.58668 64.9076 14.1409 48.4639 23.4005 48.3585C32.0034 48.2612 35.4332 58.502 35.4332 58.502C35.4332 58.502 39.4306 53.9208 43.2334 56.0209C47.0362 58.1209 49.1849 64.1292 49.1849 64.1292C49.1849 64.1292 53.4661 66.4481 55.0147 68.759Z" fill="#EBEBEB"/>
<path d="M285.436 40.5583L351.008 40.6556C351.008 40.6556 351.008 36.4717 341.975 35.6365C341.975 35.6365 333.762 17.3118 321.169 19.7524C313.304 21.293 309.299 32.0284 309.299 32.0284C309.299 32.0284 303.388 23.5471 298.645 25.185C293.901 26.8228 291.071 35.8311 291.071 35.8311C291.071 35.8311 286.182 38.1907 285.436 40.5583Z" fill="#EBEBEB"/>
<path d="M93.8373 16.4767L138.433 16.5497C138.433 16.5497 134.233 12.6252 132.36 12.6252C130.487 12.6252 125.062 -0.53451 118.081 0.0168541C111.1 0.568218 107.354 10.3468 107.354 10.3468C107.354 10.3468 98.905 7.67919 93.8373 16.4767Z" fill="#EBEBEB"/>
<path d="M221.681 91.519L259.79 91.5757C259.79 91.5757 257.9 89.1432 255.808 88.7946C255.808 88.7946 251.754 76.6889 244.96 76.5916C238.635 76.5024 236.081 84.0188 236.081 84.0188C236.081 84.0188 233.162 80.6458 230.357 82.1782C227.551 83.7107 225.962 88.1297 225.962 88.1297C225.962 88.1297 222.808 89.8243 221.681 91.519Z" fill="#EBEBEB"/>
<path d="M303.347 154.861C303.347 154.861 275.625 216.589 320.983 216.589C366.341 216.589 336.94 152.761 336.94 152.761C336.94 152.761 347.481 148.139 335.261 113.703C323.042 79.2673 317.642 79.2673 312.558 79.2673C306.169 79.2673 300.217 94.1784 304.58 117.06C304.604 117.06 288.647 145.617 303.347 154.861Z" fill="#EBEBEB"/>
<path d="M325.013 257.536L320.634 164.534L316.264 257.536H325.013Z" fill="#A6A6A6"/>
<path d="M322.418 203.527L305.934 184.27L318.858 206.073L322.418 203.527Z" fill="#A6A6A6"/>
<path d="M43.047 173.445C43.047 173.445 65.7421 224 28.598 224C-8.54607 224 15.5274 171.718 15.5274 171.718C15.5274 171.718 6.93266 167.94 16.9059 139.731C26.879 111.522 31.3386 111.53 35.4819 111.53C40.7118 111.53 45.5849 123.741 41.9686 142.488C42.0091 142.496 55.0797 165.88 43.047 173.445Z" fill="#EBEBEB"/>
<path d="M25.306 257.536L28.8818 181.375L32.4656 257.536H25.306Z" fill="#A6A6A6"/>
<path d="M27.4304 213.305L40.9307 197.535L30.3412 215.389L27.4304 213.305Z" fill="#A6A6A6"/>
<path d="M298.417 161.493C298.417 161.493 311.35 156.361 321.615 174.223C332.156 192.54 318.948 204.613 308.48 197.429C308.48 197.429 300.266 214.668 283.839 210.565C267.411 206.462 264.744 193.318 264.744 193.318C264.744 193.318 250.149 194.348 249.76 183.467C249.37 172.586 260.025 162.937 260.025 162.937C260.025 162.937 260.641 135.831 278.293 136.041C295.944 136.252 298.417 161.493 298.417 161.493Z" fill="#DBDBDB"/>
<path d="M286.409 257.536L282.712 176.891L279.014 257.536H286.409Z" fill="#A6A6A6"/>
<path d="M284.293 206.227L295.142 184.578L281.122 204.33L284.293 206.227Z" fill="#A6A6A6"/>
<path d="M207.41 336C259.754 336 302.188 330.369 302.188 323.424C302.188 316.478 259.754 310.848 207.41 310.848C155.066 310.848 112.632 316.478 112.632 323.424C112.632 330.369 155.066 336 207.41 336Z" fill="#EBEBEB"/>
<path d="M88.6479 257.536H42.4307C42.4307 257.536 42.5361 250.66 47.0767 248.828C48.3104 248.292 49.685 248.172 50.9927 248.487C52.3005 248.801 53.4703 249.533 54.3255 250.571C54.3255 250.571 56.1742 237.922 64.6393 237.922C73.1043 237.922 77.1585 248.828 77.1585 248.828C77.1585 248.828 79.0558 245.536 83.7505 246.144C88.4452 246.752 88.6479 257.536 88.6479 257.536Z" fill="#455A64"/>
<path d="M346.062 257.536C346.062 257.536 344.643 250.928 341.813 249.906C338.983 248.885 337.264 251.852 337.264 251.852C337.264 251.852 336.599 245.536 332.586 243.647C328.572 241.758 325.564 245.625 325.564 245.625C325.564 245.625 322.483 237.614 316.985 237.614C311.488 237.614 308.715 249.339 308.715 249.339C308.715 249.339 305.472 245.844 302.139 247.823C298.807 249.801 298.815 257.553 298.815 257.553L346.062 257.536Z" fill="#37474F"/>
<path d="M50.7174 257.536H8.10831C8.10831 257.536 9.51104 251.528 12.3408 251.098C15.1706 250.669 16.4761 253.466 16.4761 253.466C16.4761 253.466 16.3463 245.082 21.6248 243.655C26.9033 242.228 31.3548 249.631 31.3548 249.631C31.3548 249.631 34.663 245.414 39.1712 245.682C43.6794 245.949 44.847 252.923 44.847 252.923C44.847 252.923 48.9092 250.506 50.7174 257.536Z" fill="#37474F"/>
<path d="M301.872 257.536H275.69C275.69 257.536 275.747 253.636 278.325 252.606C279.023 252.302 279.8 252.233 280.541 252.41C281.281 252.587 281.943 253 282.428 253.588C282.428 253.588 283.474 246.42 288.274 246.42C293.074 246.42 295.361 252.606 295.361 252.606C295.767 252.016 296.338 251.557 297.002 251.286C297.666 251.015 298.395 250.944 299.099 251.082C301.766 251.431 301.872 257.536 301.872 257.536Z" fill="#455A64"/>
<path d="M352.078 257.536H2.09186V264.501H352.078V257.536Z" fill="#A6A6A6"/>
<path d="M20.1004 257.536C20.6409 259.826 20.6409 262.211 20.1004 264.501C19.56 262.211 19.56 259.826 20.1004 257.536Z" fill="#263238"/>
<path d="M41.0279 257.536C41.5684 259.826 41.5684 262.211 41.0279 264.501C40.4874 262.211 40.4874 259.826 41.0279 257.536Z" fill="#263238"/>
<path d="M61.9473 257.536C62.4878 259.826 62.4878 262.211 61.9473 264.501C61.4068 262.211 61.4068 259.826 61.9473 257.536Z" fill="#263238"/>
<path d="M82.891 257.536C83.4315 259.826 83.4315 262.211 82.891 264.501C82.3505 262.211 82.3505 259.826 82.891 257.536Z" fill="#263238"/>
<path d="M103.827 257.536C104.367 259.826 104.367 262.211 103.827 264.501C103.286 262.211 103.286 259.826 103.827 257.536Z" fill="#263238"/>
<path d="M124.754 257.536C125.295 259.826 125.295 262.211 124.754 264.501C124.214 262.211 124.214 259.826 124.754 257.536Z" fill="#263238"/>
<path d="M145.69 257.536C146.23 259.826 146.23 262.211 145.69 264.501C145.149 262.211 145.149 259.826 145.69 257.536Z" fill="#263238"/>
<path d="M166.617 257.536C167.158 259.826 167.158 262.211 166.617 264.501C166.077 262.211 166.077 259.826 166.617 257.536Z" fill="#263238"/>
<path d="M187.553 257.536C188.093 259.826 188.093 262.211 187.553 264.501C187.012 262.211 187.012 259.826 187.553 257.536Z" fill="#263238"/>
<path d="M208.48 257.536C209.021 259.826 209.021 262.211 208.48 264.501C207.94 262.211 207.94 259.826 208.48 257.536Z" fill="#263238"/>
<path d="M229.416 257.536C229.956 259.826 229.956 262.211 229.416 264.501C228.875 262.211 228.875 259.826 229.416 257.536Z" fill="#263238"/>
<path d="M250.343 257.536C250.884 259.826 250.884 262.211 250.343 264.501C249.803 262.211 249.803 259.826 250.343 257.536Z" fill="#263238"/>
<path d="M271.279 257.536C271.819 259.826 271.819 262.211 271.279 264.501C270.739 262.211 270.739 259.826 271.279 257.536Z" fill="#263238"/>
<path d="M292.223 257.536C292.763 259.826 292.763 262.211 292.223 264.501C291.682 262.211 291.682 259.826 292.223 257.536Z" fill="#263238"/>
<path d="M313.142 257.536C313.683 259.826 313.683 262.211 313.142 264.501C312.602 262.211 312.602 259.826 313.142 257.536Z" fill="#263238"/>
<path d="M334.07 257.536C334.61 259.826 334.61 262.211 334.07 264.501C333.529 262.211 333.529 259.826 334.07 257.536Z" fill="#263238"/>
<path d="M1.427 264.501L45.3415 264.298L89.256 264.233L177.085 264.096L264.914 264.233L308.828 264.298L352.743 264.501L308.828 264.696L264.914 264.769L177.085 264.907L89.256 264.769L45.3415 264.696L1.427 264.501Z" fill="#263238"/>
<path d="M136.965 84.3026H66.6826V167.721H136.965V84.3026Z" fill="#455A64"/>
<path d="M66.6907 96.319H63.0015V131.995H66.6907V96.319Z" fill="#FFC727"/>
<path d="M66.6907 141.344H63.0015V155.704H66.6907V141.344Z" fill="#FFC727"/>
<path d="M140.646 99.2785H136.957V113.638H140.646V99.2785Z" fill="#FFC727"/>
<path d="M140.646 118.576H136.957V141.774H140.646V118.576Z" fill="#FFC727"/>
<path d="M130.316 92.192H73.3314V159.831H130.316V92.192Z" fill="white"/>
<path d="M125.776 99.9433H116.046V95.4351H125.776V99.9433ZM116.532 99.4487H125.281V95.9297H116.532V99.4487Z" fill="#A6A6A6"/>
<path d="M123.116 96.2216H116.84V99.1974H123.116V96.2216Z" fill="#A6A6A6"/>
<path d="M126.643 96.5054H125.776V98.9217H126.643V96.5054Z" fill="#A6A6A6"/>
<path d="M95.686 96.092L94.1373 99.765C94.1121 99.8274 94.0682 99.8805 94.0115 99.9168C93.9548 99.9531 93.8883 99.9709 93.821 99.9677C93.7781 99.9755 93.7342 99.9755 93.6913 99.9677C93.6086 99.9319 93.543 99.8655 93.5082 99.7823C93.4735 99.6992 93.4722 99.6058 93.5048 99.5218L94.8427 96.3352H93.221C93.1292 96.3331 93.0417 96.2957 92.9768 96.2308C92.9118 96.1659 92.8744 96.0784 92.8724 95.9865C92.8724 95.9411 92.8814 95.8962 92.8991 95.8543C92.9167 95.8125 92.9425 95.7746 92.975 95.7428C93.0075 95.7111 93.046 95.6862 93.0882 95.6696C93.1305 95.6529 93.1756 95.6449 93.221 95.646H95.4103C95.4569 95.6512 95.5014 95.668 95.54 95.6946V95.8244L95.686 96.092Z" fill="#A6A6A6"/>
<path d="M97.1454 96.611C97.2687 96.6131 97.3862 96.6636 97.4727 96.7515C97.5591 96.8395 97.6075 96.9579 97.6075 97.0812C97.6054 97.2024 97.5558 97.3179 97.4693 97.4028C97.3829 97.4878 97.2665 97.5353 97.1454 97.5353C97.085 97.5364 97.0251 97.5254 96.9691 97.5031C96.9131 97.4808 96.8621 97.4475 96.819 97.4052C96.776 97.3629 96.7418 97.3125 96.7185 97.2569C96.6952 97.2013 96.6832 97.1416 96.6832 97.0812C96.6821 97.0199 96.6933 96.9589 96.716 96.9019C96.7387 96.8449 96.7726 96.793 96.8156 96.7492C96.8587 96.7054 96.91 96.6706 96.9666 96.6469C97.0232 96.6232 97.084 96.611 97.1454 96.611ZM97.1454 99.084C97.2687 99.0861 97.3862 99.1366 97.4727 99.2246C97.5591 99.3125 97.6075 99.4309 97.6075 99.5543C97.6054 99.6754 97.5558 99.7909 97.4693 99.8758C97.3829 99.9608 97.2665 100.008 97.1454 100.008C97.085 100.009 97.0251 99.9985 96.9691 99.9761C96.9131 99.9538 96.8621 99.9205 96.819 99.8782C96.776 99.836 96.7418 99.7855 96.7185 99.7299C96.6952 99.6743 96.6832 99.6146 96.6832 99.5543C96.6821 99.4929 96.6933 99.4319 96.716 99.3749C96.7387 99.3179 96.7726 99.266 96.8156 99.2222C96.8587 99.1784 96.91 99.1437 96.9666 99.1199C97.0232 99.0962 97.084 99.084 97.1454 99.084Z" fill="#A6A6A6"/>
<path d="M100.389 97.3244C100.541 97.465 100.664 97.6348 100.749 97.8238C100.834 98.0128 100.88 98.2171 100.885 98.4243C100.889 98.6316 100.851 98.8376 100.774 99.0301C100.697 99.2225 100.582 99.3974 100.436 99.5443C100.289 99.6911 100.115 99.8069 99.9228 99.8848C99.7306 99.9626 99.5248 100.001 99.3175 99.9973C99.1102 99.9937 98.9058 99.9482 98.7165 99.8638C98.5271 99.7793 98.3568 99.6574 98.2157 99.5056C98.1501 99.44 98.1133 99.351 98.1133 99.2582C98.1133 99.1655 98.1501 99.0765 98.2157 99.0109C98.2813 98.9454 98.3703 98.9085 98.463 98.9085C98.5558 98.9085 98.6447 98.9454 98.7103 99.0109C98.7873 99.0895 98.8795 99.1516 98.9813 99.1934C99.083 99.2352 99.1922 99.2559 99.3022 99.2542C99.5235 99.2523 99.7355 99.1652 99.8941 99.0109C99.9752 98.9337 100.039 98.8405 100.083 98.7372C100.126 98.634 100.147 98.5229 100.145 98.4109C100.145 98.3017 100.123 98.1937 100.079 98.0934C100.036 97.993 99.9732 97.9025 99.8941 97.8271C99.8178 97.7471 99.7259 97.6835 99.6242 97.6403C99.5224 97.597 99.4128 97.5751 99.3022 97.5758C99.2544 97.5777 99.2068 97.5684 99.1631 97.5487C99.1195 97.529 99.0811 97.4994 99.0509 97.4623C98.9869 97.3958 98.9512 97.3072 98.9512 97.2149C98.9512 97.1227 98.9869 97.0341 99.0509 96.9677L99.6833 96.3271H98.6779C98.5935 96.3143 98.5166 96.2716 98.461 96.2069C98.4053 96.1422 98.3748 96.0597 98.3748 95.9744C98.3748 95.8891 98.4053 95.8066 98.461 95.7418C98.5166 95.6771 98.5935 95.6345 98.6779 95.6217H100.51C100.556 95.6217 100.601 95.6307 100.644 95.6482C100.686 95.6657 100.725 95.6914 100.757 95.7238C100.789 95.7562 100.815 95.7946 100.832 95.8369C100.85 95.8792 100.859 95.9246 100.859 95.9703C100.859 96.0295 100.845 96.0879 100.818 96.1406C100.801 96.171 100.78 96.1984 100.754 96.2217L99.9428 97.0325C100.11 97.0987 100.261 97.198 100.389 97.3244Z" fill="#A6A6A6"/>
<path d="M101.824 97.7947C101.814 97.2692 101.961 96.7526 102.246 96.3109C102.357 96.1024 102.523 95.928 102.726 95.8065C102.929 95.6849 103.16 95.6207 103.397 95.6207C103.633 95.6207 103.865 95.6849 104.068 95.8065C104.271 95.928 104.437 96.1024 104.548 96.3109C104.824 96.7568 104.97 97.2706 104.97 97.7947C104.97 98.3189 104.824 98.8327 104.548 99.2785C104.437 99.4871 104.271 99.6614 104.068 99.783C103.865 99.9046 103.633 99.9688 103.397 99.9688C103.16 99.9688 102.929 99.9046 102.726 99.783C102.523 99.6614 102.357 99.4871 102.246 99.2785C101.962 98.8365 101.815 98.3201 101.824 97.7947ZM104.256 97.7947C104.263 97.4072 104.162 97.0254 103.965 96.692C103.907 96.5843 103.824 96.4929 103.722 96.4263C103.62 96.3596 103.502 96.32 103.381 96.3109C103.259 96.3207 103.142 96.3607 103.04 96.4272C102.938 96.4938 102.855 96.5848 102.797 96.692C102.593 97.023 102.489 97.4059 102.497 97.7947C102.488 98.181 102.593 98.5614 102.797 98.8894C102.856 98.9962 102.94 99.0874 103.041 99.1551C103.143 99.2228 103.259 99.2652 103.381 99.2785C103.502 99.2658 103.619 99.2238 103.721 99.156C103.822 99.0882 103.906 98.9967 103.965 98.8894C104.168 98.5606 104.275 98.1813 104.273 97.7947H104.256Z" fill="#A6A6A6"/>
<path d="M107.5 99.3677H106.616L106.437 99.838C106.423 99.8758 106.397 99.9083 106.364 99.9314C106.331 99.9545 106.291 99.9672 106.251 99.9677H106.178C106.153 99.9579 106.13 99.9431 106.11 99.9243C106.091 99.9054 106.075 99.8829 106.065 99.8579C106.054 99.833 106.049 99.8061 106.049 99.779C106.049 99.7519 106.054 99.7251 106.064 99.7001L106.875 97.5677C106.891 97.5292 106.918 97.4964 106.953 97.4733C106.988 97.4502 107.028 97.4379 107.07 97.4379C107.112 97.4379 107.152 97.4502 107.187 97.4733C107.221 97.4964 107.248 97.5292 107.264 97.5677L108.075 99.7001C108.092 99.7519 108.089 99.8079 108.066 99.8574C108.044 99.9068 108.004 99.9461 107.954 99.9677H107.881C107.84 99.9672 107.801 99.9545 107.768 99.9314C107.734 99.9083 107.709 99.8758 107.694 99.838L107.5 99.3677ZM107.346 98.9704L107.054 98.1596L106.762 98.9704H107.346Z" fill="#A6A6A6"/>
<path d="M110.727 97.6326V99.7651C110.727 99.8189 110.705 99.8704 110.667 99.9084C110.629 99.9464 110.578 99.9678 110.524 99.9678C110.47 99.9678 110.419 99.9464 110.381 99.9084C110.343 99.8704 110.321 99.8189 110.321 99.7651V98.2407L109.802 98.9624C109.783 98.9897 109.758 99.012 109.728 99.0275C109.699 99.043 109.666 99.0513 109.632 99.0516C109.599 99.052 109.566 99.044 109.536 99.0284C109.506 99.0129 109.481 98.9902 109.462 98.9624L108.943 98.2407V99.7651C108.943 99.8189 108.922 99.8704 108.884 99.9084C108.846 99.9464 108.794 99.9678 108.74 99.9678C108.687 99.9678 108.635 99.9464 108.597 99.9084C108.559 99.8704 108.538 99.8189 108.538 99.7651V97.6326C108.538 97.5789 108.559 97.5273 108.597 97.4893C108.635 97.4513 108.687 97.4299 108.74 97.4299C108.772 97.4305 108.802 97.4381 108.831 97.4521C108.859 97.4662 108.883 97.4863 108.902 97.511L109.624 98.5164L110.346 97.511C110.365 97.4863 110.39 97.4662 110.418 97.4521C110.446 97.4381 110.477 97.4305 110.508 97.4299C110.536 97.4277 110.564 97.4312 110.59 97.4404C110.617 97.4496 110.641 97.4642 110.662 97.4832C110.682 97.5023 110.699 97.5254 110.71 97.5511C110.721 97.5768 110.727 97.6046 110.727 97.6326Z" fill="#A6A6A6"/>
<path d="M82.3316 95.4595H81.318V99.9677H82.3316V95.4595Z" fill="#A6A6A6"/>
<path d="M80.8964 96.2704H79.8829V99.9678H80.8964V96.2704Z" fill="#A6A6A6"/>
<path d="M79.4612 97.0812H78.4477V99.9677H79.4612V97.0812Z" fill="#A6A6A6"/>
<path d="M78.0179 97.8839H77.0044V99.9596H78.0179V97.8839Z" fill="#A6A6A6"/>
<path d="M101.605 148.69C101.636 148.19 101.851 147.719 102.207 147.366C102.564 147.014 103.037 146.805 103.538 146.779C104.039 146.753 104.532 146.911 104.923 147.225C105.314 147.539 105.576 147.985 105.659 148.48C105.659 148.634 105.659 148.796 105.659 148.958C105.666 149.544 105.567 150.126 105.367 150.677C105.163 151.259 104.784 151.763 104.281 152.12C103.903 152.364 103.465 152.499 103.016 152.51C102.954 152.513 102.893 152.504 102.835 152.483C102.777 152.462 102.724 152.43 102.679 152.389C102.634 152.347 102.597 152.297 102.571 152.241C102.546 152.185 102.531 152.125 102.529 152.064C102.529 151.94 102.576 151.821 102.66 151.731C102.744 151.64 102.86 151.585 102.983 151.577C103.271 151.577 103.552 151.496 103.794 151.342C104.014 151.192 104.194 150.992 104.321 150.758C104.362 150.685 104.394 150.612 104.427 150.539C104.116 150.67 103.778 150.722 103.443 150.691C103.108 150.66 102.785 150.547 102.504 150.362C102.223 150.176 101.992 149.925 101.83 149.629C101.669 149.334 101.584 149.003 101.581 148.666L101.605 148.69ZM102.537 148.69C102.524 148.844 102.543 148.998 102.593 149.144C102.642 149.289 102.722 149.423 102.826 149.537C102.93 149.65 103.056 149.74 103.197 149.802C103.338 149.864 103.49 149.896 103.644 149.896C103.798 149.896 103.95 149.864 104.091 149.802C104.232 149.74 104.358 149.65 104.462 149.537C104.567 149.423 104.646 149.289 104.696 149.144C104.745 148.998 104.764 148.844 104.751 148.69C104.727 148.413 104.6 148.155 104.395 147.967C104.19 147.779 103.922 147.674 103.644 147.674C103.366 147.674 103.098 147.779 102.893 147.967C102.688 148.155 102.561 148.413 102.537 148.69Z" fill="#A6A6A6"/>
<path d="M106.989 149.599C106.976 148.888 107.177 148.191 107.565 147.596C107.725 147.32 107.952 147.088 108.226 146.924C108.5 146.759 108.81 146.667 109.129 146.655C109.447 146.67 109.755 146.763 110.027 146.928C110.299 147.092 110.526 147.322 110.686 147.596C111.053 148.201 111.246 148.895 111.246 149.603C111.246 150.31 111.053 151.004 110.686 151.609C110.524 151.881 110.297 152.109 110.025 152.272C109.754 152.435 109.446 152.527 109.129 152.542C108.811 152.53 108.501 152.439 108.228 152.276C107.954 152.113 107.726 151.884 107.565 151.609C107.177 151.011 106.977 150.311 106.989 149.599ZM110.313 149.599C110.322 149.073 110.182 148.555 109.908 148.107C109.829 147.958 109.713 147.833 109.57 147.743C109.428 147.654 109.265 147.603 109.097 147.596C108.93 147.607 108.768 147.659 108.627 147.748C108.485 147.838 108.368 147.961 108.286 148.107C108.021 148.559 107.881 149.074 107.881 149.599C107.881 150.123 108.021 150.638 108.286 151.09C108.368 151.237 108.485 151.361 108.627 151.451C108.768 151.542 108.93 151.596 109.097 151.609C109.266 151.601 109.429 151.548 109.571 151.457C109.713 151.366 109.829 151.24 109.908 151.09C110.182 150.642 110.322 150.124 110.313 149.599Z" fill="#A6A6A6"/>
<path d="M98.4347 150.215C97.7128 151.18 96.792 151.979 95.7346 152.558C94.6771 151.979 93.7564 151.18 93.0345 150.215C92.0778 148.958 92.1264 146.972 93.4886 146.558C94.9967 146.088 95.7346 148.35 95.7346 148.35C95.7346 148.35 96.4806 146.072 97.9806 146.558C99.359 146.972 99.4158 148.942 98.4347 150.215Z" fill="#FFC727"/>
<path d="M118.892 143.242H84.7398V143.785H118.892V143.242Z" fill="#FFC727"/>
<path d="M101.597 106.43C98.1759 106.43 94.8318 107.444 91.9874 109.345C89.1431 111.246 86.9264 113.948 85.6176 117.108C84.3088 120.269 83.9668 123.747 84.6348 127.102C85.3028 130.457 86.9508 133.539 89.3703 135.957C91.7899 138.376 94.8723 140.022 98.2278 140.689C101.583 141.355 105.061 141.011 108.221 139.701C111.381 138.391 114.082 136.173 115.981 133.328C117.88 130.482 118.893 127.138 118.892 123.717C118.89 119.131 117.067 114.734 113.823 111.493C110.58 108.251 106.182 106.43 101.597 106.43ZM101.597 135.717C99.2234 135.717 96.9033 135.013 94.9299 133.695C92.9564 132.376 91.4183 130.502 90.5101 128.309C89.6018 126.116 89.3641 123.704 89.8272 121.376C90.2902 119.048 91.4331 116.91 93.1114 115.231C94.7897 113.553 96.9279 112.41 99.2557 111.947C101.584 111.484 103.996 111.722 106.189 112.63C108.382 113.538 110.256 115.076 111.575 117.05C112.893 119.023 113.597 121.343 113.597 123.717C113.601 125.295 113.294 126.859 112.693 128.319C112.092 129.779 111.209 131.106 110.094 132.223C108.979 133.341 107.655 134.228 106.197 134.833C104.739 135.438 103.175 135.75 101.597 135.75V135.717Z" fill="#FFC727"/>
<path opacity="0.2" d="M101.597 106.43C98.1759 106.43 94.8318 107.444 91.9874 109.345C89.1431 111.246 86.9264 113.948 85.6176 117.108C84.3088 120.269 83.9668 123.747 84.6348 127.102C85.3028 130.457 86.9508 133.539 89.3703 135.957C91.7899 138.376 94.8723 140.022 98.2278 140.689C101.583 141.355 105.061 141.011 108.221 139.701C111.381 138.391 114.082 136.173 115.981 133.328C117.88 130.482 118.893 127.138 118.892 123.717C118.89 119.131 117.067 114.734 113.823 111.493C110.58 108.251 106.182 106.43 101.597 106.43ZM101.597 135.717C99.2234 135.717 96.9033 135.013 94.9299 133.695C92.9564 132.376 91.4183 130.502 90.5101 128.309C89.6018 126.116 89.3641 123.704 89.8272 121.376C90.2902 119.048 91.4331 116.91 93.1114 115.231C94.7897 113.553 96.9279 112.41 99.2557 111.947C101.584 111.484 103.996 111.722 106.189 112.63C108.382 113.538 110.256 115.076 111.575 117.05C112.893 119.023 113.597 121.343 113.597 123.717C113.601 125.295 113.294 126.859 112.693 128.319C112.092 129.779 111.209 131.106 110.094 132.223C108.979 133.341 107.655 134.228 106.197 134.833C104.739 135.438 103.175 135.75 101.597 135.75V135.717Z" fill="#050400"/>
<path d="M101.597 106.43V111.725C103.971 111.723 106.292 112.426 108.267 113.744C110.242 115.062 111.781 116.936 112.69 119.129C113.6 121.322 113.838 123.736 113.375 126.064C112.912 128.393 111.769 130.532 110.09 132.21C108.412 133.889 106.273 135.032 103.944 135.495C101.616 135.958 99.202 135.719 97.0089 134.81C94.8158 133.901 92.9417 132.362 91.6237 130.387C90.3058 128.412 89.6031 126.091 89.6047 123.717C89.5982 121.786 90.0689 119.884 90.975 118.179L86.2722 115.746C84.9779 118.209 84.3043 120.951 84.31 123.733C84.3116 127.154 85.3275 130.497 87.2292 133.34C89.131 136.184 91.8331 138.399 94.994 139.707C98.1548 141.014 101.632 141.355 104.987 140.686C108.342 140.017 111.422 138.368 113.84 135.949C116.258 133.529 117.903 130.446 118.569 127.091C119.235 123.736 118.891 120.259 117.58 117.099C116.27 113.939 114.052 111.239 111.207 109.34C108.362 107.441 105.017 106.428 101.597 106.43Z" fill="#FFC727"/>
<path d="M109.786 121.179C108.975 121.99 108.165 122.801 107.354 123.611C107.258 123.721 107.14 123.81 107.007 123.87C106.874 123.931 106.729 123.962 106.584 123.962C106.438 123.962 106.293 123.931 106.16 123.87C106.027 123.81 105.909 123.721 105.813 123.611C105.392 123.19 105.002 122.801 104.581 122.355C103.916 123.019 103.283 123.652 102.627 124.325L103.794 125.492C104.167 125.865 104.556 126.23 104.913 126.628C105.029 126.778 105.084 126.966 105.067 127.155C104.792 128.695 104.5 130.228 104.256 131.768C104.22 132.08 104.061 132.365 103.815 132.559C103.568 132.754 103.255 132.843 102.943 132.806C102.785 132.787 102.634 132.735 102.497 132.655C102.36 132.574 102.242 132.466 102.149 132.337C102.056 132.209 101.991 132.062 101.957 131.907C101.923 131.752 101.922 131.591 101.954 131.436C102.108 130.349 102.294 129.263 102.448 128.193C102.46 128.123 102.457 128.052 102.44 127.984C102.424 127.916 102.393 127.851 102.351 127.795C101.824 127.22 101.281 126.652 100.729 126.068C100.064 126.766 99.432 127.471 98.7671 128.136C98.6021 128.298 98.3824 128.394 98.1509 128.403C96.9752 128.403 95.7995 128.403 94.6238 128.403C94.3031 128.449 93.9766 128.383 93.699 128.216C93.4215 128.049 93.2098 127.792 93.0994 127.487V126.96C93.2058 126.653 93.4167 126.393 93.6953 126.225C93.974 126.058 94.3026 125.994 94.6238 126.044C95.3535 126.044 96.0914 126.044 96.8211 126.044C96.9677 126.041 97.1085 125.987 97.2184 125.89C98.6374 124.317 100.048 122.728 101.467 121.146C101.471 121.117 101.471 121.087 101.467 121.057C101.294 121.009 101.111 121.013 100.94 121.069C100.77 121.125 100.62 121.231 100.51 121.373C100.032 121.941 99.4969 122.468 98.986 122.995C98.9003 123.105 98.7922 123.196 98.6688 123.262C98.5454 123.327 98.4095 123.366 98.27 123.375C98.1306 123.384 97.9908 123.364 97.8599 123.315C97.7289 123.266 97.6098 123.191 97.5103 123.092C97.4089 122.992 97.3294 122.872 97.277 122.739C97.2245 122.607 97.2002 122.464 97.2055 122.322C97.2108 122.179 97.2457 122.039 97.308 121.911C97.3702 121.783 97.4585 121.669 97.5671 121.576C98.4185 120.765 99.2698 119.955 100.137 119.144C100.269 119.037 100.431 118.975 100.6 118.965C101.581 118.965 102.554 118.965 103.527 118.965C103.709 118.961 103.891 118.993 104.061 119.059C104.231 119.126 104.386 119.227 104.516 119.355C105.132 119.938 105.773 120.498 106.373 121.09C106.64 121.357 106.811 121.317 107.046 121.09C107.467 120.636 107.913 120.206 108.351 119.768C108.446 119.666 108.561 119.585 108.688 119.529C108.816 119.474 108.954 119.445 109.093 119.445C109.232 119.445 109.37 119.474 109.498 119.529C109.625 119.585 109.74 119.666 109.835 119.768C109.925 119.863 109.996 119.976 110.043 120.099C110.089 120.221 110.111 120.352 110.107 120.484C110.102 120.615 110.071 120.744 110.016 120.864C109.961 120.983 109.883 121.09 109.786 121.179Z" fill="#455A64"/>
<path d="M108.359 118.09C108.36 118.321 108.316 118.55 108.227 118.763C108.139 118.977 108.01 119.17 107.846 119.333C107.682 119.496 107.488 119.625 107.274 119.712C107.06 119.799 106.831 119.843 106.6 119.841C106.133 119.841 105.686 119.656 105.356 119.326C105.026 118.996 104.84 118.548 104.84 118.082C104.847 117.614 105.036 117.168 105.368 116.839C105.701 116.51 106.149 116.324 106.616 116.322C107.081 116.326 107.526 116.515 107.853 116.846C108.179 117.177 108.361 117.624 108.359 118.09Z" fill="#455A64"/>
<path d="M82.9803 220.165H120.676L125.541 167.721H78.1153L82.9803 220.165Z" fill="#FFC727"/>
<path opacity="0.2" d="M125.541 167.721L124.843 175.172L78.8694 175.829L78.1153 167.721H125.541Z" fill="#050400"/>
<path d="M120.676 31.8581H82.9803L78.1153 84.3025H125.541L120.676 31.8581Z" fill="#FFC727"/>
<path opacity="0.2" d="M125.541 84.3025H78.1153L78.7234 77.7024L124.86 77.0375L125.541 84.3025Z" fill="#050400"/>
<path d="M199.634 148.593C199.634 149.017 199.509 149.43 199.273 149.782C199.038 150.134 198.704 150.409 198.313 150.571C197.922 150.733 197.491 150.775 197.076 150.693C196.661 150.61 196.279 150.406 195.98 150.107C195.681 149.807 195.477 149.426 195.394 149.011C195.312 148.596 195.354 148.165 195.516 147.774C195.678 147.383 195.952 147.049 196.304 146.813C196.656 146.578 197.07 146.453 197.494 146.453C198.061 146.453 198.606 146.678 199.007 147.08C199.409 147.481 199.634 148.026 199.634 148.593Z" fill="#455A64"/>
<path d="M197.834 149.071H168.588L142.925 123.409L143.501 122.841L168.92 148.261H197.834V149.071Z" fill="#455A64"/>
<path d="M164.671 62.6372H130.195V28.1526L131.816 26.5309H166.293V61.0155L164.671 62.6372Z" fill="#455A64"/>
<path d="M166.293 26.5309H131.816V61.0074H166.293V26.5309Z" fill="#FFC727"/>
<path d="M159.498 46.4287C156.708 50.1699 153.143 53.2647 149.047 55.5019C144.955 53.2621 141.393 50.1676 138.603 46.4287C134.922 41.5637 135.108 33.9419 140.371 32.296C146.192 30.4716 149.047 39.2286 149.047 39.2286C149.047 39.2286 151.949 30.4148 157.739 32.296C162.977 34.0068 163.179 41.5637 159.498 46.4287Z" fill="white"/>
<path d="M144.944 51.6585L143.363 45.0583L142.325 47.3854H135.911V46.6395H141.838L143.573 42.7475L144.806 47.8962L146.557 37.2257L148.098 45.6665L149.322 42.1394L151.244 47.9125L151.674 46.6395H162.198V47.3773H152.209L151.244 50.2639L149.306 44.4583L147.879 48.5936L146.598 41.588L144.944 51.6585Z" fill="#FFC727"/>
<path d="M164.582 59.2965H133.535V28.2498H164.582V59.2965ZM133.941 58.8911H164.177V28.6553H133.941V58.8911Z" fill="white"/>
<path d="M186.247 124.512H151.771V90.0351L153.393 88.4134H187.869V122.89L186.247 124.512Z" fill="#455A64"/>
<path d="M187.861 88.4134H153.384V122.89H187.861V88.4134Z" fill="#FFC727"/>
<path d="M186.15 121.171H155.103V90.1242H186.15V121.171ZM155.509 120.765H185.745V90.5297H155.509V120.765Z" fill="white"/>
<path d="M164.793 99.5461H160.317V111.765H164.793V99.5461Z" fill="white"/>
<path d="M160.317 100.835H158.339V110.46H160.317V100.835Z" fill="white"/>
<path d="M160.317 110.468H159.733L159.328 100.835H160.317V110.468Z" fill="#EBEBEB"/>
<path d="M176.461 111.757H180.937V99.538H176.461V111.757Z" fill="white"/>
<path d="M180.936 110.468H182.915V100.843H180.936V110.468Z" fill="white"/>
<path d="M180.937 100.835H181.52L181.926 110.468H180.937V100.835Z" fill="#EBEBEB"/>
<path d="M176.461 104.216H164.793V107.087H176.461V104.216Z" fill="white"/>
<path d="M165.344 107.087H164.793V104.216H165.612L165.344 107.087Z" fill="#EBEBEB"/>
<path d="M175.909 104.216H176.461V107.087H175.642L175.909 104.216Z" fill="#EBEBEB"/>
<path d="M67.1448 215.389H32.6684V180.913L34.29 179.291H68.7665V213.767L67.1448 215.389Z" fill="#455A64"/>
<path d="M68.7664 179.291H34.2899V213.767H68.7664V179.291Z" fill="#FFC727"/>
<path d="M67.0555 212.057H36.0008V181.026H67.0555V212.057ZM36.4143 211.651H66.6501V181.407H36.4143V211.651Z" fill="white"/>
<path d="M59.7256 191.972C59.3202 187.87 56.4823 183.791 51.5282 183.791C46.574 183.791 43.7361 187.845 43.3307 191.972C42.7063 198.305 46.9713 204.038 51.5282 209.267C56.085 204.038 60.3256 198.305 59.7256 191.972ZM51.5282 196.529C50.6397 196.529 49.7712 196.266 49.0325 195.772C48.2938 195.279 47.7181 194.577 47.3781 193.756C47.0381 192.936 46.9491 192.032 47.1225 191.161C47.2958 190.29 47.7236 189.489 48.3518 188.861C48.98 188.233 49.7804 187.805 50.6518 187.632C51.5232 187.458 52.4264 187.547 53.2472 187.887C54.068 188.227 54.7695 188.803 55.2631 189.542C55.7567 190.28 56.0201 191.149 56.0201 192.037C56.0201 193.229 55.5469 194.371 54.7045 195.214C53.8621 196.056 52.7195 196.529 51.5282 196.529Z" fill="white"/>
<path d="M48.7065 148.577H14.2301V114.101L15.8517 112.479H50.3282V146.955L48.7065 148.577Z" fill="#455A64"/>
<path d="M50.3282 112.479H15.8517V146.955H50.3282V112.479Z" fill="#FFC727"/>
<path d="M48.6092 145.236H17.5626V114.19H48.6092V145.236ZM17.968 144.831H48.2038V114.595H17.968V144.831Z" fill="white"/>
<path d="M35.4008 117.555H30.7709V120.174H35.4008V117.555Z" fill="#263238"/>
<path d="M36.0575 116.671H30.1223V118.39H36.0575V116.671Z" fill="#455A64"/>
<path d="M25.0515 120.146L23.7902 121.407L25.7797 123.397L27.041 122.135L25.0515 120.146Z" fill="#263238"/>
<path d="M24.7507 119.11L22.7497 121.11L24.0512 122.412L26.0522 120.411L24.7507 119.11Z" fill="#455A64"/>
<path d="M39.1342 122.13L40.3956 123.391L42.3851 121.402L41.1237 120.14L39.1342 122.13Z" fill="#263238"/>
<path d="M40.1127 120.399L42.1137 122.4L43.4152 121.099L41.4142 119.098L40.1127 120.399Z" fill="#455A64"/>
<path d="M44.7275 132.815C45.7213 126.666 41.5422 120.875 35.3932 119.882C29.2442 118.888 23.4538 123.067 22.4601 129.216C21.4663 135.365 25.6454 141.155 31.7944 142.149C37.9434 143.143 43.7338 138.964 44.7275 132.815Z" fill="#455A64"/>
<path d="M32.9521 141.644C38.8811 141.644 43.6875 136.838 43.6875 130.909C43.6875 124.98 38.8811 120.174 32.9521 120.174C27.0231 120.174 22.2167 124.98 22.2167 130.909C22.2167 136.838 27.0231 141.644 32.9521 141.644Z" fill="#263238"/>
<path d="M42.444 132.542C43.2792 127.374 39.7668 122.508 34.599 121.672C29.4312 120.837 24.5648 124.35 23.7296 129.518C22.8945 134.685 26.4068 139.552 31.5746 140.387C36.7425 141.222 41.6088 137.71 42.444 132.542Z" fill="white"/>
<path d="M33.1791 122.249H32.9926V123.684H33.1791V122.249Z" fill="#C7C7C7"/>
<path d="M28.7804 123.383L28.6189 123.476L29.3364 124.719L29.498 124.626L28.7804 123.383Z" fill="#C7C7C7"/>
<path d="M25.5212 126.56L25.4279 126.721L26.6708 127.439L26.7641 127.277L25.5212 126.56Z" fill="#C7C7C7"/>
<path d="M25.7276 130.949H24.2924V131.136H25.7276V130.949Z" fill="#C7C7C7"/>
<path d="M26.6706 134.646L25.4275 135.364L25.5206 135.525L26.7638 134.808L26.6706 134.646Z" fill="#C7C7C7"/>
<path d="M29.3341 137.357L28.6173 138.6L28.7789 138.694L29.4956 137.45L29.3341 137.357Z" fill="#C7C7C7"/>
<path d="M33.1791 138.401H32.9926V139.836H33.1791V138.401Z" fill="#C7C7C7"/>
<path d="M36.8457 137.358L36.6842 137.451L37.4018 138.694L37.5633 138.601L36.8457 137.358Z" fill="#C7C7C7"/>
<path d="M39.5085 134.628L39.4153 134.79L40.6582 135.507L40.7514 135.346L39.5085 134.628Z" fill="#C7C7C7"/>
<path d="M41.8793 130.949H40.4441V131.136H41.8793V130.949Z" fill="#C7C7C7"/>
<path d="M40.648 126.573L39.405 127.29L39.4982 127.452L40.7412 126.734L40.648 126.573Z" fill="#C7C7C7"/>
<path d="M37.4003 123.395L36.6832 124.638L36.8447 124.731L37.5619 123.488L37.4003 123.395Z" fill="#C7C7C7"/>
<path d="M33.1548 124.187L33.5764 131.606L32.6196 131.598L32.8953 124.179L33.1548 124.187Z" fill="#263238"/>
<path d="M33.4143 131.047C33.4143 131.111 33.3952 131.174 33.3596 131.227C33.324 131.28 33.2733 131.322 33.214 131.346C33.1548 131.371 33.0896 131.377 33.0267 131.365C32.9637 131.352 32.9059 131.321 32.8606 131.276C32.8152 131.231 32.7843 131.173 32.7718 131.11C32.7593 131.047 32.7657 130.982 32.7903 130.923C32.8148 130.863 32.8564 130.813 32.9097 130.777C32.9631 130.741 33.0258 130.722 33.0899 130.722C33.1759 130.722 33.2584 130.757 33.3193 130.817C33.3801 130.878 33.4143 130.961 33.4143 131.047Z" fill="#FFC727"/>
<path d="M285.404 307.589C283.523 307.589 234.881 291.802 233.413 290.026C232.846 289.361 252.062 247.782 252.062 247.782L282.493 258.866L269.098 284.002C269.098 284.002 284.569 297.988 285.979 300.113C287.39 302.237 287.293 307.581 285.404 307.589Z" fill="#DD6A57"/>
<path d="M285.404 307.589C283.523 307.589 234.881 291.802 233.413 290.026C233.138 289.71 237.589 279.558 242.081 269.609L271.368 279.737L269.098 283.977C269.098 283.977 284.569 297.956 285.979 300.08C287.39 302.205 287.285 307.581 285.404 307.589Z" fill="#EBEBEB"/>
<path d="M285.623 307.629C283.75 307.629 234.605 292.094 233.138 290.326C232.578 289.653 236.138 282.007 239.478 273.964L269.52 283.921C269.52 283.921 284.763 298.045 286.166 300.137C287.569 302.229 287.504 307.613 285.623 307.629Z" fill="#FFC727"/>
<path d="M285.558 305.464C277.506 302.634 244.749 291.964 236.576 289.775C236.511 289.775 236.494 289.775 236.576 289.823C244.497 292.807 277.336 303.21 285.533 305.602C285.687 305.651 285.736 305.529 285.558 305.464Z" fill="#263238"/>
<path d="M283.636 297.397C282.741 297.081 281.79 296.955 280.844 297.026C279.898 297.097 278.976 297.364 278.139 297.81C276.614 298.593 275.452 299.935 274.895 301.556C274.895 301.605 274.968 301.629 274.993 301.556C275.794 300.043 277.063 298.831 278.611 298.1C280.159 297.369 281.902 297.159 283.579 297.502C283.593 297.51 283.61 297.511 283.625 297.507C283.64 297.502 283.653 297.492 283.66 297.478C283.668 297.464 283.67 297.447 283.665 297.432C283.661 297.417 283.65 297.404 283.636 297.397Z" fill="#263238"/>
<path d="M271.822 285.558C268.579 284.464 264.452 284.383 261.565 286.369C261.452 286.45 261.565 286.604 261.679 286.588C265.004 286.019 268.38 285.81 271.749 285.964C271.794 285.956 271.835 285.935 271.867 285.903C271.899 285.872 271.92 285.831 271.928 285.787C271.936 285.742 271.93 285.697 271.911 285.656C271.892 285.615 271.861 285.581 271.822 285.558Z" fill="#263238"/>
<path d="M274.012 287.35C270.768 286.256 266.641 286.175 263.755 288.161C263.649 288.242 263.755 288.396 263.868 288.38C267.193 287.811 270.569 287.602 273.939 287.756C273.983 287.748 274.024 287.727 274.056 287.695C274.088 287.664 274.11 287.623 274.118 287.579C274.126 287.534 274.12 287.489 274.101 287.448C274.082 287.407 274.051 287.373 274.012 287.35Z" fill="#263238"/>
<path d="M276.209 289.142C272.966 288.048 268.83 287.966 265.952 289.953C265.838 290.034 265.952 290.188 266.065 290.172C269.387 289.603 272.761 289.394 276.128 289.548C276.173 289.541 276.215 289.521 276.248 289.49C276.281 289.459 276.303 289.418 276.312 289.374C276.321 289.329 276.316 289.283 276.298 289.241C276.279 289.2 276.248 289.165 276.209 289.142Z" fill="#263238"/>
<path d="M278.439 290.934C275.195 289.84 271.06 289.758 268.182 291.745C268.068 291.826 268.182 291.98 268.295 291.964C271.62 291.395 274.996 291.186 278.366 291.34C278.41 291.332 278.451 291.311 278.483 291.279C278.515 291.248 278.537 291.207 278.545 291.163C278.553 291.118 278.547 291.072 278.528 291.032C278.509 290.991 278.478 290.957 278.439 290.934Z" fill="#263238"/>
<path d="M241.141 282.729C237.492 281.561 235.659 287.229 239.316 288.404C242.973 289.58 244.806 283.904 241.141 282.729Z" fill="#263238"/>
<path d="M278.155 278.034C276.947 276.128 274.441 276.793 272.974 277.88C270.997 279.39 269.357 281.295 268.157 283.475C267.98 283.77 267.821 284.076 267.679 284.391C267.622 284.529 267.557 284.658 267.492 284.788V284.893C267.444 285.015 267.403 285.121 267.355 285.226C267.349 285.239 267.347 285.254 267.349 285.268C267.351 285.282 267.356 285.296 267.364 285.308C267.371 285.32 267.382 285.33 267.395 285.337C267.407 285.343 267.421 285.347 267.436 285.348C267.428 285.431 267.446 285.515 267.486 285.589C267.526 285.663 267.588 285.723 267.663 285.761C267.7 285.787 267.743 285.803 267.788 285.81C267.833 285.817 267.879 285.814 267.922 285.802C268.733 285.566 269.544 285.348 270.355 285.121C270.494 285.093 270.632 285.058 270.768 285.015C272.778 284.569 274.697 283.785 276.444 282.696C277.798 281.715 279.249 279.826 278.155 278.034ZM271.952 283.637L269.941 284.269C269.365 284.448 268.806 284.634 268.247 284.821L268.011 284.91L267.801 284.983L267.898 284.812C268.182 284.439 268.465 284.075 268.709 283.693C269.463 282.677 270.275 281.705 271.141 280.783C271.726 280.135 272.358 279.531 273.03 278.974C274.085 278.164 278.163 276.453 277.336 280.093C276.914 282.072 273.574 283.102 271.952 283.637Z" fill="#263238"/>
<path d="M268.076 285.266C268.091 285.264 268.104 285.257 268.116 285.248C268.127 285.239 268.136 285.226 268.142 285.213C268.147 285.199 268.15 285.184 268.148 285.17C268.147 285.155 268.141 285.141 268.133 285.129C268.094 285.05 268.045 284.976 267.987 284.91C267.987 284.89 267.982 284.87 267.974 284.852C267.965 284.834 267.953 284.818 267.938 284.804C267.871 284.664 267.789 284.531 267.695 284.407C267.391 283.918 267.055 283.45 266.69 283.004C265.282 281.225 263.549 279.731 261.582 278.601C259.96 277.709 257.414 277.393 256.473 279.412C256.436 279.481 256.409 279.555 256.392 279.631C255.711 281.472 257.365 283.053 258.873 283.823C260.493 284.56 262.216 285.044 263.982 285.258C265.206 285.445 266.414 285.583 267.638 285.769C267.955 285.826 268.117 285.526 268.076 285.266ZM263.365 284.164C261.655 283.847 258.209 283.256 257.487 281.326C257.297 280.887 257.221 280.407 257.268 279.931C257.544 278.196 260.641 279.08 261.606 279.664C262.347 280.126 263.057 280.638 263.73 281.196C264.249 281.61 264.728 282.056 265.206 282.518C266.017 283.256 266.722 284.026 267.492 284.788L267.638 284.934C267.576 284.912 267.51 284.898 267.444 284.893L266.949 284.788C265.765 284.561 264.565 284.383 263.365 284.164Z" fill="#263238"/>
<path d="M277.239 268.985L247.238 258.112C247.238 258.112 276.549 192.483 275.066 190.002C273.136 186.759 236.34 170.477 225.605 158.769C211.456 143.363 219.183 124.503 219.183 124.503H247.465C247.465 124.503 251.235 134.696 252.006 135.928C255.095 140.89 309.875 164.502 312.818 177.678C317.358 198.419 277.239 268.985 277.239 268.985Z" fill="#263238"/>
<path d="M222.767 124.974C222.634 126.73 222.617 128.494 222.719 130.252C222.793 132.004 222.967 133.75 223.238 135.482C223.744 138.917 224.746 142.26 226.213 145.407C226.945 146.952 227.828 148.421 228.848 149.793C229.1 150.14 229.371 150.473 229.659 150.791C229.913 151.118 230.183 151.432 230.47 151.731C231.054 152.331 231.686 152.907 232.335 153.458C235.033 155.653 237.863 157.681 240.808 159.531C246.719 163.285 252.8 166.829 258.938 170.275C265.076 173.721 271.23 177.159 277.377 180.702C278.901 181.61 280.425 182.518 281.95 183.508C282.754 184.022 283.528 184.583 284.269 185.186C284.526 185.407 284.76 185.654 284.966 185.924C285.011 185.98 285.052 186.04 285.088 186.102C285.136 186.18 285.18 186.261 285.217 186.345L285.282 186.5C285.282 186.581 285.331 186.662 285.355 186.743C285.379 186.824 285.355 186.905 285.355 186.905V186.978C285.367 187.159 285.367 187.34 285.355 187.521C285.334 188.067 285.266 188.609 285.152 189.143C284.74 190.931 284.223 192.694 283.604 194.421C283.02 196.113 282.404 197.784 281.755 199.432C279.128 206.032 276.344 212.541 273.404 218.957C267.566 231.833 261.376 244.536 254.836 257.066C260.179 243.987 265.701 230.998 271.052 217.976C273.704 211.449 276.428 204.946 278.852 198.362C279.452 196.74 280.052 195.078 280.612 193.432C281.17 191.838 281.638 190.214 282.015 188.567C282.082 188.227 282.125 187.883 282.144 187.537C282.144 187.464 282.144 187.464 282.144 187.424C282.144 187.424 282.144 187.424 282.144 187.505C282.153 187.56 282.167 187.614 282.185 187.667V187.748L282.242 187.845V187.886C282.173 187.814 282.1 187.746 282.023 187.683C281.389 187.176 280.726 186.708 280.036 186.281C278.593 185.356 277.085 184.464 275.568 183.581C269.52 180.021 263.341 176.591 257.244 173.04C251.146 169.488 245.081 165.807 239.243 161.745C236.323 159.713 233.544 157.486 230.924 155.08C230.259 154.456 229.611 153.815 228.994 153.118C228.686 152.769 228.403 152.388 228.127 152.023C227.851 151.658 227.584 151.293 227.316 150.904C226.3 149.392 225.439 147.781 224.746 146.096C223.414 142.748 222.594 139.22 222.313 135.628C222.022 132.072 222.175 128.493 222.767 124.974Z" fill="#455A64"/>
<path d="M159.247 320.408C158.509 320.408 145.309 321.056 144.182 320.043C132.741 309.786 116.613 282.866 116.322 281.512C116.103 280.661 128.2 270.696 128.265 270.631C129.514 269.252 153.198 247.928 153.198 247.928L176.785 271.709L152.257 293.269L151.852 293.667C152.533 298.642 153.651 303.547 155.193 308.326C155.517 309.291 159.766 313.459 160.058 314.262C160.982 316.881 160.244 320.408 159.247 320.408Z" fill="#DD6A57"/>
<path d="M159.247 320.408C158.493 320.408 145.301 321.057 144.174 320.035C132.733 309.786 116.605 282.866 116.313 281.504C116.086 280.653 128.192 270.704 128.257 270.631C128.565 270.291 130.235 268.742 132.587 266.577L155.744 290.196L152.241 293.278L151.844 293.667C152.529 298.642 153.649 303.547 155.193 308.326C155.533 309.291 159.774 313.467 160.058 314.27C160.982 316.881 160.244 320.408 159.247 320.408Z" fill="#EBEBEB"/>
<path d="M159.733 320.61C159.304 320.902 144.79 321.016 143.825 320.148C134.662 311.87 115.681 282.85 115.446 281.229C115.34 280.369 121.827 274.499 128.995 269.553L152.014 293.732C152.014 293.732 153.433 303.226 155.258 308.326C155.679 309.486 159.847 313.297 160.228 314.148C161.404 316.71 160.341 320.197 159.733 320.61Z" fill="#FFC727"/>
<path d="M158.631 313.013C157.66 312.385 156.576 311.955 155.439 311.748C154.302 311.541 153.136 311.56 152.006 311.805C151.04 312.005 150.124 312.394 149.309 312.951C148.495 313.508 147.799 314.22 147.263 315.048C147.263 315.097 147.328 315.162 147.368 315.113C149.89 312.129 154.852 311.172 158.566 313.086C158.575 313.086 158.584 313.084 158.593 313.08C158.601 313.077 158.609 313.071 158.615 313.064C158.621 313.057 158.626 313.049 158.628 313.04C158.631 313.031 158.632 313.022 158.631 313.013Z" fill="#263238"/>
<path d="M128.022 278.763C125.589 275.804 120.984 279.574 123.416 282.542C125.849 285.51 130.454 281.739 128.022 278.763Z" fill="#263238"/>
<path d="M162.263 294.25C162.36 292.004 159.92 291.121 158.095 291.169C155.612 291.287 153.18 291.917 150.952 293.018C150.638 293.161 150.332 293.321 150.036 293.496L149.655 293.715L149.565 293.78L149.265 293.975C149.254 293.983 149.244 293.994 149.238 294.007C149.231 294.019 149.228 294.033 149.228 294.048C149.228 294.062 149.231 294.076 149.238 294.089C149.244 294.101 149.254 294.112 149.265 294.121C149.21 294.185 149.176 294.264 149.167 294.348C149.159 294.432 149.176 294.517 149.217 294.591C149.234 294.633 149.26 294.671 149.294 294.702C149.328 294.733 149.368 294.756 149.411 294.769L151.771 295.58L152.176 295.734C154.077 296.497 156.091 296.941 158.136 297.048C159.871 297.08 162.174 296.375 162.263 294.25ZM153.952 295.304L151.941 294.68L150.23 294.161L149.995 294.104L149.776 294.04L149.979 293.967L151.317 293.529C152.509 293.115 153.724 292.773 154.957 292.507C155.806 292.312 156.668 292.176 157.536 292.102C158.882 292.012 163.212 292.961 160.431 295.475C158.939 296.861 155.606 295.799 153.952 295.304Z" fill="#263238"/>
<path d="M149.866 294.453C149.879 294.457 149.893 294.457 149.907 294.455C149.92 294.453 149.933 294.448 149.945 294.44C149.956 294.433 149.966 294.422 149.973 294.411C149.981 294.399 149.985 294.386 149.987 294.372C149.999 294.283 149.999 294.193 149.987 294.105C150.002 294.068 150.002 294.028 149.987 293.991C150.003 293.835 150.003 293.677 149.987 293.521C150.028 292.948 150.028 292.374 149.987 291.802C149.849 289.536 149.279 287.318 148.309 285.267C147.498 283.645 145.576 281.893 143.638 283.029L143.444 283.166C141.822 284.285 142.292 286.531 143.095 288.031C144.003 289.564 145.143 290.945 146.476 292.126C147.368 292.937 148.309 293.796 149.184 294.632C149.235 294.68 149.298 294.715 149.366 294.733C149.435 294.751 149.507 294.75 149.575 294.733C149.643 294.715 149.706 294.68 149.757 294.631C149.807 294.582 149.845 294.521 149.866 294.453ZM146.622 290.853C145.398 289.621 142.901 287.164 143.379 285.177C143.472 284.71 143.684 284.274 143.995 283.912C145.211 282.639 147.238 285.137 147.709 286.158C148.054 286.962 148.344 287.788 148.576 288.631C148.763 289.264 148.909 289.904 149.039 290.553C149.266 291.607 149.428 292.661 149.622 293.723C149.622 293.788 149.622 293.861 149.663 293.926C149.621 293.874 149.575 293.825 149.525 293.78C149.411 293.659 149.306 293.537 149.184 293.415C148.366 292.548 147.482 291.721 146.622 290.853Z" fill="#263238"/>
<path d="M153.368 297.615C151.333 294.867 147.976 292.442 144.449 292.442C144.319 292.442 144.319 292.637 144.449 292.686C147.501 294.12 150.393 295.873 153.076 297.915C153.117 297.947 153.168 297.962 153.22 297.958C153.271 297.954 153.319 297.932 153.355 297.895C153.391 297.858 153.412 297.809 153.415 297.758C153.417 297.706 153.401 297.656 153.368 297.615Z" fill="#263238"/>
<path d="M154.139 300.34C152.112 297.591 148.755 295.167 145.219 295.167C145.09 295.167 145.09 295.361 145.219 295.41C148.273 296.841 151.165 298.594 153.847 300.64C153.888 300.671 153.939 300.686 153.99 300.682C154.041 300.679 154.09 300.656 154.126 300.619C154.162 300.582 154.183 300.533 154.185 300.482C154.187 300.43 154.171 300.38 154.139 300.34Z" fill="#263238"/>
<path d="M154.917 303.064C152.89 300.316 149.533 297.891 145.998 297.891C145.86 297.891 145.868 298.086 145.998 298.134C149.054 299.562 151.946 301.315 154.625 303.364C154.666 303.396 154.717 303.411 154.769 303.407C154.82 303.403 154.868 303.381 154.904 303.344C154.94 303.307 154.961 303.258 154.964 303.206C154.966 303.155 154.949 303.104 154.917 303.064Z" fill="#263238"/>
<path d="M155.695 305.781C153.668 303.032 150.312 300.607 146.776 300.607C146.638 300.607 146.647 300.802 146.776 300.851C149.831 302.281 152.723 304.034 155.404 306.081C155.445 306.112 155.496 306.127 155.547 306.123C155.598 306.119 155.647 306.097 155.682 306.06C155.718 306.023 155.74 305.974 155.742 305.923C155.744 305.871 155.728 305.821 155.695 305.781Z" fill="#263238"/>
<path d="M159.847 318.624C155.866 318.097 151.787 318.178 147.79 317.813L146.387 317.675C145.884 317.71 145.385 317.56 144.984 317.254C144.338 316.531 143.739 315.768 143.192 314.967L139.609 310.272C134.83 303.98 130.127 297.626 125.5 291.21C124.195 289.402 122.873 287.61 121.559 285.802C120.246 283.993 118.803 282.266 117.505 280.466C117.465 280.402 117.351 280.466 117.4 280.531C118.511 282.226 119.516 283.993 120.643 285.672C121.77 287.35 122.93 289.037 124.105 290.691C126.435 293.983 128.797 297.253 131.192 300.502C133.587 303.751 136.006 306.978 138.449 310.183C139.682 311.805 140.922 313.427 142.171 315.048C142.771 315.859 143.371 316.605 143.987 317.375C144.192 317.683 144.464 317.94 144.783 318.127C145.102 318.314 145.459 318.426 145.828 318.454C150.449 318.9 155.168 318.786 159.814 319.013C160.009 318.981 160.058 318.648 159.847 318.624Z" fill="#263238"/>
<path d="M246.095 124.536C246.095 124.536 248.884 148.447 243.954 153.896C243.954 153.896 227.6 212.511 222.873 225.452C215.575 245.495 168.677 278.812 168.677 278.812L145.163 255.152C145.163 255.152 187.934 216.67 188.137 215.308C189.134 207.565 206.315 158.793 205.837 157.464C200.388 142.39 209.21 124.536 209.21 124.536H246.095Z" fill="#263238"/>
<path d="M150.052 260.058C157.285 252.76 164.647 245.69 172.082 238.628L183.255 228.087L188.883 222.873L191.68 220.27L192.385 219.614L192.742 219.289L192.912 219.127C192.941 219.102 192.969 219.075 192.994 219.046C192.994 218.981 192.994 219.005 193.083 218.9L193.269 218.551C193.391 218.341 193.512 218.041 193.634 217.741C194.623 215.535 195.467 213.095 196.302 210.711C197.137 208.327 197.923 205.846 198.734 203.413C200.291 198.548 201.856 193.683 203.364 188.818L212.429 159.483L212.47 160.293C211.965 158.797 211.593 157.258 211.359 155.696L211.189 154.553L211.075 153.409C210.978 152.647 210.953 151.885 210.913 151.115C210.79 148.073 210.937 145.026 211.351 142.009C211.594 140.509 211.813 139.009 212.162 137.541C212.51 136.074 212.883 134.606 213.297 133.163C213.491 132.433 213.743 131.72 213.994 131.014L214.732 128.882C215.283 127.487 215.891 126.109 216.459 124.73C216.029 126.166 215.567 127.585 215.153 129.02C214.74 130.455 214.343 131.898 214.099 133.366C213.856 134.833 213.491 136.277 213.289 137.752C213.086 139.228 212.924 140.688 212.786 142.163C212.575 145.098 212.599 148.046 212.859 150.977C212.94 151.707 212.997 152.436 213.126 153.15L213.289 154.236L213.508 155.299C213.775 156.679 214.158 158.036 214.651 159.353L214.805 159.734L214.699 160.131C213.378 165.093 212.048 170.031 210.645 174.961C209.243 179.891 207.848 184.821 206.356 189.726C204.864 194.632 203.396 199.546 201.783 204.419C200.972 206.851 200.161 209.284 199.302 211.716C198.442 214.149 197.591 216.581 196.464 219.014C196.31 219.322 196.188 219.614 195.994 219.954L195.71 220.449C195.565 220.668 195.405 220.876 195.231 221.073L195.094 221.227L195.004 221.316L194.826 221.479L194.461 221.795L193.748 222.427L190.869 225.022L185.112 230.114L173.55 240.217C165.782 246.914 157.99 253.571 150.052 260.058Z" fill="#455A64"/>
<path d="M214.326 186.435L211.805 196.902L192.272 200.3C193.318 196.975 194.477 193.351 195.669 189.678L214.326 186.435Z" fill="#FFC727"/>
<path d="M210.921 200.6L210.321 203.089L190.358 206.559C190.602 205.749 190.853 204.938 191.112 204.046L210.921 200.6Z" fill="#FFC727"/>
<path d="M243.93 153.377C243.404 154.625 242.978 155.913 242.657 157.229C242.276 158.55 241.919 159.872 241.562 161.194C240.84 163.877 240.095 166.561 239.568 169.302C239.572 169.314 239.58 169.325 239.591 169.333C239.602 169.34 239.615 169.344 239.628 169.344C239.642 169.344 239.654 169.34 239.665 169.333C239.676 169.325 239.685 169.314 239.689 169.302C240.63 166.683 241.368 163.999 242.122 161.323C242.495 160.002 242.868 158.68 243.224 157.35C243.621 156.062 243.914 154.745 244.1 153.41C244.124 153.329 243.962 153.296 243.93 153.377Z" fill="#455A64"/>
<path d="M250.011 149.582C247.596 150.669 245.277 151.957 243.078 153.434C240.743 154.974 238.676 156.839 236.486 158.566C236.421 158.615 236.486 158.72 236.551 158.672C238.846 157.18 241.213 155.801 243.435 154.196C245.657 152.59 247.773 151.09 250.06 149.696C250.116 149.655 250.06 149.558 250.011 149.582Z" fill="#455A64"/>
<path d="M239.162 47.9774C238.943 44.8719 236.122 38.7177 231.135 37.6555C220.44 35.3852 214.481 50.2639 203.04 56.0208C189.256 62.9777 184.391 72.2374 190.788 77.2402C197.972 82.8106 209.762 78.051 218.016 59.7506C223.173 48.2936 227.551 45.5368 230.989 46.2179C233.535 46.7206 235.457 50.6612 235.457 50.6612L239.162 47.9774Z" fill="#263238"/>
<path d="M221.016 53.5073C220.067 55.2668 219.321 57.1236 218.51 58.9399C217.7 60.7561 216.937 62.5967 216.078 64.3886C215.218 66.1806 214.335 67.9482 213.313 69.6347C212.327 71.3353 211.172 72.9326 209.867 74.4024C208.587 75.8776 207.034 77.0917 205.294 77.9781C203.506 78.817 201.585 79.3383 199.618 79.5187C197.625 79.7006 195.617 79.4232 193.748 78.7079C192.806 78.3496 191.913 77.8757 191.088 77.297C190.677 77.0054 190.287 76.6857 189.921 76.3403C189.542 76.0062 189.212 75.6215 188.939 75.197C189.446 76.089 190.127 76.8695 190.942 77.4916C191.749 78.1403 192.635 78.6851 193.577 79.1133C194.532 79.5338 195.534 79.8387 196.561 80.0214C197.591 80.2022 198.639 80.262 199.683 80.1998C200.723 80.1483 201.755 79.9934 202.764 79.7376L203.51 79.543L204.256 79.3079C204.752 79.147 205.236 78.9547 205.707 78.7322C207.558 77.8131 209.211 76.5405 210.572 74.9862C213.172 71.8959 215.258 68.4082 216.751 64.6562C217.562 62.8156 218.243 60.9507 218.924 59.0777C219.605 57.2047 220.262 55.3479 221.016 53.5073Z" fill="#263238"/>
<path d="M238.132 46.1449C237.892 44.7814 237.478 43.4544 236.9 42.1962C236.318 40.9754 235.465 39.903 234.408 39.0602C233.35 38.2174 232.114 37.6261 230.794 37.3312C230.139 37.1846 229.471 37.0977 228.8 37.0717C228.134 37.0322 227.465 37.0621 226.805 37.1609C225.491 37.3991 224.229 37.8657 223.075 38.5393C221.911 39.2334 220.824 40.0487 219.832 40.9718C217.797 42.7962 215.964 44.8881 214.051 46.9071C212.144 48.9701 210.084 50.8864 207.888 52.6396C205.628 54.2947 203.242 55.7721 200.753 57.0587C198.28 58.3009 195.891 59.7039 193.602 61.2588C192.465 62.0321 191.433 62.9477 190.529 63.9831L189.872 64.794C189.677 65.0778 189.507 65.3697 189.312 65.6616L189.037 66.0994L188.81 66.5616L188.356 67.5102C189.287 64.8432 191.002 62.5199 193.277 60.8452C195.526 59.1854 197.885 57.6819 200.34 56.3451C202.743 54.9947 205.053 53.4859 207.256 51.8288C209.392 50.0861 211.398 48.1891 213.256 46.153C215.178 44.1584 217.018 42.0989 219.151 40.1934C220.209 39.2426 221.364 38.4055 222.597 37.6961C223.853 36.9928 225.227 36.5256 226.651 36.3177C227.371 36.2447 228.096 36.2447 228.816 36.3177C229.53 36.3725 230.238 36.4891 230.932 36.6663C232.323 37.0455 233.613 37.7266 234.711 38.6609C235.766 39.6226 236.596 40.8046 237.143 42.1232C237.661 43.4104 237.994 44.7644 238.132 46.1449Z" fill="#263238"/>
<path d="M241.497 49.5179C241.408 48.5206 240.541 47.3125 239.876 47.2071C239.211 47.1017 234.646 49.7206 234.378 51.0017C234.111 52.2829 236.365 53.118 236.365 53.118L241.497 49.5179Z" fill="#FFC727"/>
<path d="M239.616 92.4839C251.316 109.203 264.663 122.712 270.898 122.485C279.298 122.144 296.626 112.446 305.147 106.576C307.629 104.808 293.844 85.5999 291.161 87.4405C287.917 89.6622 271.344 101.435 270.971 101.557C270.16 101.8 251.219 88.0567 246.468 85.0567C238.546 80.0539 234.419 85.0567 239.616 92.4839Z" fill="#DD6A57"/>
<path d="M317.496 97.0893C314.521 101.184 305.156 107.16 302.342 107.735C299.528 108.311 288.834 92.7352 289.734 89.8972C290.634 87.0593 301.726 74.1023 306.704 72.7401C311.683 71.3779 320.602 92.8568 317.496 97.0893Z" fill="#DD6A57"/>
<path d="M299.463 76.4294C299.236 79.097 302.512 77.8402 302.512 77.8402C302.512 77.8402 298.231 80.7835 299.066 83.6295C299.901 86.4756 303.777 84.708 304.053 84.5944C303.834 84.7566 299.999 87.5621 301.093 90.3351C302.188 93.1081 305.901 90.8784 306.137 90.7243C305.974 90.9432 303.826 93.8379 305.164 95.7433C307.458 99.0272 313.142 91.7865 316.377 91.5351C316.377 91.5351 317.431 96.9677 317.496 97.1136C317.496 97.1136 323.042 90.3351 322.459 85.9891C322.381 85.3602 322.091 84.7767 321.637 84.3346C321.183 83.8925 320.592 83.6181 319.961 83.5566C319.961 83.5566 321.988 81.5619 321.169 79.3565C320.748 78.2213 318.558 77.8889 318.558 77.8889C318.994 77.4137 319.29 76.828 319.414 76.1959C319.538 75.5638 319.486 74.9096 319.264 74.305C318.591 72.7726 316.499 72.6834 316.499 72.6834C316.499 72.6834 317.261 70.3968 316.061 69.0508C313.645 66.2859 299.958 70.6887 299.463 76.4294Z" fill="#DD6A57"/>
<path d="M316.175 72.5698V72.4968C311.143 72.8515 306.337 74.723 302.39 77.8645C302.261 77.9699 302.39 78.2131 302.536 78.124C306.791 75.6252 311.385 73.7545 316.175 72.5698Z" fill="#263238"/>
<path d="M318.615 77.7997C318.672 77.7997 318.615 77.6943 318.615 77.7024C313.053 78.1313 307.83 80.539 303.891 84.489C303.753 84.635 303.777 84.8945 303.947 84.7404C306.72 82.1863 314.115 78.8619 318.615 77.7997Z" fill="#263238"/>
<path d="M306.007 91.0811C309.891 87.2621 314.618 85.0728 319.791 83.516C319.856 83.516 319.791 83.4025 319.791 83.4025C317.058 83.4755 313.864 84.8053 311.464 86.0539C309.22 87.167 307.303 88.8433 305.901 90.9189C305.78 91.0243 305.885 91.1622 306.007 91.0811Z" fill="#263238"/>
<path d="M302.512 77.816C301.747 78.4593 301.039 79.1673 300.396 79.9322C299.749 80.6583 299.304 81.542 299.107 82.4945C299.04 82.9356 299.138 83.3859 299.382 83.7593C299.634 84.1329 299.981 84.4324 300.388 84.6269C300.804 84.796 301.251 84.8747 301.7 84.8579C302.148 84.8411 302.588 84.7292 302.991 84.5296L305.001 83.6458L303.42 85.1783C302.713 85.8498 302.121 86.6333 301.669 87.4973C301.437 87.8862 301.289 88.3195 301.234 88.7692C301.18 89.2189 301.22 89.675 301.353 90.1081C301.482 90.5089 301.745 90.853 302.098 91.0832C302.451 91.3134 302.872 91.4157 303.291 91.373C304.226 91.2594 305.117 90.9077 305.877 90.3514L308.034 88.8919L306.485 90.9676C306.051 91.5443 305.691 92.1736 305.415 92.8406C305.135 93.4657 305.042 94.1585 305.147 94.8353C305.206 95.1385 305.35 95.4186 305.563 95.6427C305.776 95.8668 306.048 96.0255 306.347 96.1002C307.04 96.1787 307.74 96.0577 308.366 95.7515C309.73 95.1083 311.039 94.3572 312.283 93.5055C312.923 93.1001 313.572 92.6947 314.237 92.3136C314.887 91.8985 315.616 91.6224 316.377 91.5028C315.644 91.6944 314.956 92.0277 314.35 92.4839C313.718 92.9136 313.11 93.3677 312.502 93.8217C311.288 94.7741 309.988 95.6102 308.618 96.3191C307.874 96.7224 307.027 96.8946 306.185 96.8137C305.737 96.7241 305.325 96.5064 304.998 96.1868C304.671 95.8673 304.444 95.4597 304.345 95.0137C304.189 94.1783 304.282 93.3155 304.612 92.5325C304.909 91.7838 305.298 91.0755 305.772 90.4244L306.372 91.0406C305.481 91.7129 304.43 92.1406 303.323 92.2812C302.709 92.342 302.092 92.1872 301.58 91.8433C301.088 91.484 300.713 90.9876 300.501 90.4163C300.331 89.8693 300.278 89.2925 300.346 88.7236C300.415 88.1548 300.603 87.6069 300.899 87.1162C301.415 86.1722 302.08 85.318 302.869 84.5864L303.299 85.2351C302.787 85.4644 302.232 85.5789 301.672 85.5705C301.111 85.5621 300.56 85.431 300.055 85.1864C299.569 84.9094 299.162 84.5132 298.872 84.035C298.583 83.5471 298.482 82.9705 298.588 82.4134C298.851 81.3963 299.396 80.4743 300.161 79.7539C300.869 79.0215 301.658 78.3715 302.512 77.816Z" fill="#263238"/>
<path d="M291.234 87.3837C291.234 87.3837 296.017 66.4643 303.283 72.3428C305.439 74.0861 312.202 83.8323 310.28 85.235C307.791 87.0351 304.199 83.4998 302.301 80.9214C302.301 80.9214 301.677 88.2594 296.431 89.354C295.467 89.5359 294.472 89.4481 293.555 89.1005C292.638 88.7528 291.835 88.1587 291.234 87.3837Z" fill="#DD6A57"/>
<path d="M302.642 71.8887C303.572 72.4731 304.411 73.1917 305.131 74.0212C305.871 74.8292 306.556 75.6852 307.183 76.5834C308.467 78.3726 309.59 80.2719 310.539 82.2592C310.792 82.7859 310.969 83.3454 311.066 83.9214C311.117 84.2547 311.095 84.5949 311.002 84.9188C310.954 85.0965 310.874 85.2641 310.766 85.4134C310.66 85.5621 310.528 85.691 310.377 85.7945C309.84 86.1746 309.183 86.3474 308.528 86.2809C307.93 86.2109 307.349 86.0381 306.81 85.7701C305.803 85.24 304.893 84.5437 304.118 83.7106C303.35 82.9132 302.64 82.0624 301.993 81.1646L302.682 80.9619C302.576 81.7876 302.394 82.6018 302.139 83.3944C301.89 84.1902 301.561 84.9589 301.158 85.689C300.745 86.4166 300.229 87.0803 299.626 87.6594C299.029 88.2328 298.327 88.6844 297.558 88.9891C298.262 88.591 298.895 88.0786 299.431 87.4729C299.953 86.8677 300.389 86.1939 300.728 85.4701C301.074 84.7507 301.345 83.9982 301.539 83.2241C301.738 82.4594 301.863 81.6775 301.912 80.8889L301.969 79.9078L302.601 80.7187C303.253 81.5746 303.96 82.3871 304.718 83.1511C305.438 83.8986 306.276 84.5231 307.199 84.9998C308.083 85.4296 309.161 85.6161 309.834 85.1134C310.458 84.7323 310.134 83.5809 309.745 82.6809C309.356 81.7809 308.829 80.7592 308.318 79.8105C307.807 78.8619 307.272 77.9213 306.696 77.0051C305.621 75.0975 304.253 73.371 302.642 71.8887Z" fill="#263238"/>
<path d="M271.012 122.452H270.898C264.663 122.703 251.316 109.195 239.616 92.4512C235.805 87.0106 237.005 82.8673 241.035 83.0132L271.012 122.452Z" fill="#263238"/>
<path d="M249.087 118.819L247.465 124.536H209.202C209.202 124.536 215.178 93.2053 229.181 83.9051C236.186 79.251 242.576 81.2943 245.681 86.5079C246.492 87.8295 254.479 101.654 254.244 108.287C254.033 114.133 249.087 118.819 249.087 118.819Z" fill="#DD6A57"/>
<path d="M254.244 108.287C254.025 114.133 249.079 118.828 249.079 118.828L248.584 121.26L209.607 117.206C212.421 108.181 218.989 90.6919 229.189 83.9215C230.335 83.1447 231.575 82.5154 232.878 82.0484C235.165 85.7296 242.608 97.2434 245.527 96.4812C248.219 95.7839 246.135 88.7378 245.033 85.5431C245.269 85.8562 245.486 86.1839 245.681 86.5242C246.468 87.8296 254.479 101.654 254.244 108.287Z" fill="#FFC727"/>
<path d="M229.262 100.754V107.306L211.197 112.381C212.007 110.103 212.98 107.606 214.091 105.035L229.262 100.754Z" fill="#263238"/>
<path d="M229.262 109.957V111.579L209.64 117.076C209.81 116.509 210.005 115.909 210.207 115.284L229.262 109.957Z" fill="#263238"/>
<path d="M235.74 82.5024C235.878 83.3133 239.527 89.0377 243.362 89.1026C244.619 89.1026 245.024 82.2997 245.024 82.2997L245.17 81.8051L247.189 74.8563L239.251 69.0183L238.1 68.2075C238.1 68.2075 237.67 70.1454 237.159 72.5617L237.086 72.9022C237.086 73.0401 237.022 73.1698 236.997 73.2995C236.916 73.6563 236.835 74.0293 236.762 74.3941C236.689 74.759 236.649 74.9455 236.6 75.2455C236.551 75.5455 236.495 75.8293 236.438 76.1212C236.057 78.2295 235.824 80.3617 235.74 82.5024Z" fill="#DD6A57"/>
<path d="M237.159 72.5941C237.748 74.6217 238.772 76.4964 240.159 78.0873C241.547 79.6782 243.266 80.947 245.195 81.8051L247.214 74.8563L239.276 69.0183L238.124 68.2075C238.124 68.2075 237.67 70.1778 237.159 72.5941Z" fill="#263238"/>
<path d="M258.427 63.5534C259.668 76.1942 252.233 78.3591 249.508 78.6267C247.035 78.8619 238.578 79.3646 236.04 66.9183C233.503 54.4721 238.984 49.8909 244.619 49.0801C250.254 48.2693 257.187 50.9126 258.427 63.5534Z" fill="#DD6A57"/>
<path d="M255.735 60.2127C255.442 60.2004 255.149 60.1678 254.86 60.1154C254.549 60.1268 254.243 60.0325 253.992 59.8479C253.922 59.7771 253.879 59.6849 253.869 59.5862C253.858 59.4875 253.882 59.3882 253.935 59.3046C254.066 59.1528 254.235 59.0383 254.424 58.9728C254.614 58.9072 254.817 58.893 255.014 58.9316C255.422 58.9526 255.809 59.1229 256.1 59.41C256.164 59.4792 256.206 59.5656 256.221 59.6586C256.236 59.7515 256.223 59.8468 256.184 59.9325C256.145 60.0182 256.082 60.0905 256.002 60.1403C255.922 60.1902 255.829 60.2154 255.735 60.2127Z" fill="#263238"/>
<path d="M247.538 62.1993C247.83 62.2156 248.122 62.2156 248.414 62.1993C248.723 62.24 249.036 62.1773 249.306 62.021C249.379 61.9539 249.43 61.8648 249.449 61.7669C249.468 61.6689 249.454 61.5675 249.411 61.4777C249.297 61.3142 249.142 61.1843 248.961 61.1015C248.779 61.0188 248.579 60.9863 248.381 61.0074C247.972 60.9848 247.569 61.1181 247.254 61.3804C247.189 61.4438 247.143 61.5245 247.122 61.613C247.101 61.7015 247.106 61.7942 247.136 61.8802C247.165 61.9661 247.219 62.0418 247.29 62.0983C247.362 62.1549 247.448 62.1899 247.538 62.1993Z" fill="#263238"/>
<path d="M249.67 64.8427C249.67 64.8427 249.606 64.8913 249.614 64.9319C249.743 65.7832 249.751 66.7887 249.005 67.1617C249.005 67.1617 249.005 67.2184 249.005 67.2103C249.954 66.959 249.93 65.6292 249.67 64.8427Z" fill="#263238"/>
<path d="M248.787 64.0399C247.4 64.1048 247.627 66.8859 248.916 66.8292C250.206 66.7724 249.962 63.9913 248.787 64.0399Z" fill="#263238"/>
<path d="M248.26 64.2669C248.024 64.4453 247.814 64.7372 247.522 64.794C247.23 64.8507 246.906 64.5832 246.662 64.3237H246.614C246.654 64.8588 246.897 65.394 247.481 65.4264C248.065 65.4589 248.341 64.948 248.43 64.4048C248.438 64.2669 248.349 64.1615 248.26 64.2669Z" fill="#263238"/>
<path d="M254.381 64.1534C254.381 64.1534 254.446 64.1534 254.454 64.2183C254.454 65.0859 254.673 66.067 255.476 66.3021V66.3508C254.511 66.2859 254.276 64.9724 254.381 64.1534Z" fill="#263238"/>
<path d="M255.079 63.1885C256.457 62.9858 256.781 65.7589 255.5 65.9535C254.219 66.1481 253.927 63.3669 255.079 63.1885Z" fill="#263238"/>
<path d="M255.679 63.3102C255.914 63.4318 256.165 63.675 256.425 63.6588C256.684 63.6426 256.919 63.3183 257.081 63.0102C257.081 63.0102 257.081 63.0102 257.13 63.0102C257.203 63.5372 257.13 64.1129 256.595 64.2751C256.06 64.4372 255.784 63.9994 255.565 63.4642C255.525 63.4561 255.581 63.2615 255.679 63.3102Z" fill="#263238"/>
<path d="M235.968 66.6509C238.822 65.6454 239.211 62.4021 239.211 62.4021C249.873 60.6426 249.419 52.0884 249.419 52.0884C253.092 56.8966 257.527 57.6344 257.527 57.6588C257.599 55.4187 256.967 53.2125 255.719 51.3505C254.541 49.4046 252.748 47.9061 250.624 47.0914C248.499 46.2766 246.164 46.1918 243.987 46.8504C240.743 47.7342 238.4 50.9532 238.4 50.9532C238.4 50.9532 233.649 52.8506 232.465 56.629C230.6 62.84 235.968 66.6509 235.968 66.6509Z" fill="#263238"/>
<path d="M238.554 67.5103C238.554 67.5103 235.927 63.4561 234.094 64.3724C232.262 65.2886 234.135 71.1103 236.211 71.9779C236.471 72.1068 236.754 72.1817 237.043 72.1982C237.333 72.2147 237.622 72.1724 237.895 72.0739C238.168 71.9755 238.418 71.8228 238.63 71.6251C238.842 71.4275 239.012 71.1889 239.13 70.9239L238.554 67.5103Z" fill="#DD6A57"/>
<path d="M234.654 66.0346C234.654 66.0346 234.654 66.0346 234.654 66.0913C236.113 66.74 236.835 68.1427 237.33 69.586C237.248 69.4357 237.136 69.3046 236.999 69.2017C236.863 69.0988 236.706 69.0264 236.539 68.9895C236.372 68.9526 236.199 68.952 236.032 68.9878C235.865 69.0235 235.707 69.0948 235.57 69.1968C235.53 69.1968 235.57 69.286 235.611 69.2779C235.873 69.2069 236.152 69.2178 236.408 69.3091C236.664 69.4004 236.887 69.5677 237.046 69.7887C237.303 70.168 237.52 70.5729 237.695 70.9969C237.759 71.1266 238.003 71.0698 237.954 70.9158C238.059 68.9941 236.689 66.294 234.654 66.0346Z" fill="#263238"/>
<path d="M231.086 83.4512C237.062 83.9133 234.038 99.6677 227.373 99.1894C220.708 98.711 225.921 83.0539 231.086 83.4512Z" fill="#DD6A57"/>
<path d="M223.935 85.5593C206.445 94.4785 192.491 108.181 192.783 114.036C193.204 122.428 201.54 142.78 207.061 151.537C208.683 154.107 228.451 141.077 226.716 138.328C224.624 134.996 213.743 115.325 213.678 114.944C213.459 114.133 226.708 96.7326 230.202 92.4757C236.608 84.6674 233.446 80.7187 223.935 85.5593Z" fill="#DD6A57"/>
<path d="M241.53 165.467C241.049 166.029 240.407 166.431 239.691 166.618C238.975 166.805 238.219 166.768 237.524 166.513C237.379 167.75 236.805 168.897 235.903 169.756C234.232 171.215 231.224 169.229 231.224 169.229C230.813 170.497 230.031 171.613 228.978 172.432C227.235 173.664 223.918 172.099 223.918 172.099C222.892 173.046 221.56 173.593 220.164 173.64C216.435 173.64 213.443 168.775 211.513 165.694C209.583 162.612 206.956 152.128 206.275 150.215L225.84 137.655C225.84 137.655 238.408 148.934 240.167 152.866C241.635 156.134 243.289 163.253 241.53 165.467Z" fill="#DD6A57"/>
<path d="M237.759 166.172C237.022 162.28 235.181 158.81 233.535 155.25C233.535 155.169 233.381 155.25 233.413 155.307C235.092 158.834 236.04 162.645 237.573 166.229C237.58 166.253 237.597 166.274 237.62 166.286C237.643 166.298 237.67 166.301 237.695 166.294C237.719 166.286 237.74 166.269 237.752 166.246C237.764 166.223 237.767 166.197 237.759 166.172Z" fill="#263238"/>
<path d="M231.411 169.026C231.161 168.171 230.798 167.353 230.332 166.594C229.886 165.742 229.424 164.907 228.954 164.072C228.013 162.402 227.029 160.758 226.002 159.142C225.954 159.069 225.832 159.142 225.881 159.199C226.813 160.861 227.729 162.54 228.597 164.242C229.027 165.094 229.456 165.953 229.878 166.813C230.223 167.647 230.658 168.44 231.175 169.18C231.196 169.211 231.228 169.233 231.264 169.241C231.301 169.248 231.339 169.241 231.37 169.221C231.401 169.2 231.423 169.168 231.431 169.132C231.438 169.095 231.431 169.057 231.411 169.026Z" fill="#263238"/>
<path d="M223.862 172.026C223.623 171.245 223.252 170.51 222.767 169.853C222.321 169.099 221.875 168.345 221.437 167.591C220.57 166.075 219.694 164.566 218.867 163.026C218.863 163.018 218.858 163.011 218.852 163.005C218.845 162.999 218.838 162.994 218.829 162.991C218.812 162.985 218.794 162.986 218.778 162.993C218.762 163.001 218.749 163.015 218.743 163.031C218.737 163.048 218.738 163.066 218.745 163.083C219.556 164.656 220.367 166.237 221.219 167.802L222.475 170.096C222.788 170.84 223.233 171.522 223.789 172.107C223.8 172.117 223.814 172.122 223.828 172.121C223.843 172.12 223.856 172.114 223.866 172.103C223.876 172.092 223.881 172.078 223.88 172.064C223.879 172.049 223.873 172.036 223.862 172.026Z" fill="#263238"/>
<path d="M208.712 141.622L213.316 149.478L222.641 144.013L218.037 136.157L208.712 141.622Z" fill="#455A64"/>
<path d="M214.682 148.695L214.924 149.108L218.912 146.772L218.67 146.359L214.682 148.695Z" fill="#FFC727"/>
<path d="M219.685 145.741L219.927 146.154L221.536 145.211L221.294 144.798L219.685 145.741Z" fill="#FFC727"/>
<path d="M208.584 140.107L208.828 140.518L210.432 139.567L210.188 139.155L208.584 140.107Z" fill="#FFC727"/>
<path d="M210.74 138.853L210.984 139.265L213.572 137.73L213.328 137.319L210.74 138.853Z" fill="#FFC727"/>
<path d="M208.446 141.745L212.213 148.098L219.751 143.627L215.984 137.275L208.446 141.745Z" fill="white"/>
<path d="M211.205 141.847L211.845 142.934L211.343 143.225L210.702 142.139L211.205 141.847ZM211.756 142.909L211.189 141.936L210.791 142.163L211.367 143.144L211.756 142.909Z" fill="#A6A6A6"/>
<path d="M210.974 142.392L211.384 143.091L211.72 142.895L211.31 142.195L210.974 142.392Z" fill="#A6A6A6"/>
<path d="M210.765 141.972L210.822 142.07L211.095 141.91L211.037 141.812L210.765 141.972Z" fill="#A6A6A6"/>
<path d="M212.762 145.463L213.272 145.398C213.272 145.398 213.272 145.398 213.321 145.398C213.327 145.407 213.33 145.417 213.33 145.427C213.33 145.437 213.327 145.447 213.321 145.455L212.875 145.512L212.981 145.69C212.986 145.699 212.99 145.709 212.99 145.719C212.99 145.729 212.986 145.739 212.981 145.747C212.972 145.755 212.96 145.76 212.948 145.76C212.936 145.76 212.925 145.755 212.916 145.747L212.778 145.504H212.762V145.463Z" fill="#A6A6A6"/>
<path d="M212.705 145.269C212.695 145.256 212.69 145.24 212.69 145.224C212.69 145.208 212.695 145.192 212.705 145.18C212.716 145.171 212.731 145.165 212.745 145.165C212.76 145.165 212.774 145.171 212.786 145.18C212.795 145.191 212.8 145.206 212.8 145.22C212.8 145.235 212.795 145.249 212.786 145.261C212.775 145.27 212.761 145.276 212.747 145.277C212.732 145.279 212.718 145.276 212.705 145.269ZM212.989 145.107C212.979 145.094 212.973 145.078 212.973 145.062C212.973 145.046 212.979 145.03 212.989 145.018C213 145.008 213.014 145.003 213.029 145.003C213.044 145.003 213.058 145.008 213.07 145.018C213.078 145.03 213.081 145.046 213.078 145.061C213.075 145.077 213.066 145.09 213.053 145.099C213.041 145.107 213.025 145.11 213.01 145.107C212.994 145.104 212.981 145.095 212.972 145.082L212.989 145.107Z" fill="#A6A6A6"/>
<path d="M212.575 144.855C212.588 144.805 212.62 144.761 212.664 144.734C212.714 144.717 212.768 144.717 212.818 144.734C212.844 144.74 212.869 144.752 212.89 144.769C212.911 144.786 212.928 144.807 212.94 144.831C212.957 144.881 212.957 144.935 212.94 144.985C212.931 144.99 212.922 144.993 212.912 144.993C212.902 144.993 212.892 144.99 212.883 144.985C212.877 144.977 212.874 144.967 212.874 144.957C212.874 144.946 212.877 144.936 212.883 144.928C212.889 144.915 212.892 144.902 212.892 144.888C212.892 144.874 212.889 144.86 212.883 144.847C212.878 144.833 212.869 144.82 212.858 144.81C212.847 144.8 212.833 144.794 212.818 144.79C212.806 144.785 212.792 144.781 212.778 144.781C212.764 144.781 212.75 144.785 212.737 144.79C212.724 144.796 212.713 144.805 212.704 144.816C212.696 144.828 212.69 144.841 212.689 144.855C212.68 144.882 212.68 144.91 212.689 144.936C212.68 144.941 212.67 144.944 212.66 144.944C212.65 144.944 212.64 144.941 212.632 144.936H212.518L212.583 145.05C212.588 145.054 212.592 145.058 212.595 145.064C212.598 145.07 212.599 145.076 212.599 145.082C212.599 145.089 212.598 145.095 212.595 145.1C212.592 145.106 212.588 145.111 212.583 145.115C212.573 145.12 212.562 145.123 212.551 145.123C212.539 145.123 212.528 145.12 212.518 145.115L212.405 144.912C212.4 144.908 212.396 144.903 212.393 144.898C212.39 144.892 212.389 144.886 212.389 144.88C212.389 144.873 212.39 144.867 212.393 144.861C212.396 144.856 212.4 144.851 212.405 144.847H212.543C212.554 144.849 212.564 144.852 212.575 144.855Z" fill="#A6A6A6"/>
<path d="M212.535 144.669C212.474 144.7 212.408 144.717 212.34 144.717C212.309 144.716 212.279 144.707 212.252 144.692C212.225 144.676 212.203 144.654 212.186 144.628C212.172 144.602 212.164 144.573 212.164 144.543C212.164 144.513 212.172 144.484 212.186 144.458C212.222 144.398 212.272 144.348 212.332 144.312C212.389 144.281 212.453 144.264 212.518 144.263C212.549 144.263 212.579 144.271 212.605 144.285C212.632 144.299 212.655 144.319 212.672 144.344C212.687 144.372 212.694 144.403 212.694 144.434C212.694 144.465 212.687 144.495 212.672 144.523C212.642 144.584 212.594 144.635 212.535 144.669ZM212.372 144.393C212.328 144.418 212.291 144.454 212.267 144.499C212.259 144.512 212.255 144.527 212.255 144.543C212.255 144.559 212.259 144.574 212.267 144.588C212.267 144.588 212.307 144.588 212.348 144.628C212.397 144.629 212.445 144.615 212.486 144.588C212.532 144.566 212.57 144.529 212.591 144.482C212.603 144.454 212.603 144.422 212.591 144.393C212.579 144.387 212.565 144.383 212.551 144.383C212.537 144.383 212.523 144.387 212.51 144.393C212.465 144.381 212.418 144.381 212.372 144.393Z" fill="#A6A6A6"/>
<path d="M212.34 143.931L212.397 144.028H212.462L212.17 144.077L212.356 143.842L212.34 143.931ZM212.34 143.971L212.267 144.052H212.372L212.34 143.971Z" fill="#A6A6A6"/>
<path d="M211.951 143.68L212.186 143.542H212.226L212.048 143.647H212.17L212.129 143.753L212.299 143.647L212.056 143.785L212.121 143.639H211.959C211.959 143.639 211.951 143.728 211.951 143.68Z" fill="#A6A6A6"/>
<path d="M211.949 146.85L212.015 146.962L212.517 146.664L212.451 146.552L211.949 146.85Z" fill="#A6A6A6"/>
<path d="M213.739 147.102L213.804 147.214L214.217 146.972L214.151 146.86L213.739 147.102Z" fill="#A6A6A6"/>
<path d="M213.934 147.218L214 147.33L214.322 147.142L214.256 147.03L213.934 147.218Z" fill="#A6A6A6"/>
<path d="M212.499 147.167L212.565 147.279L212.795 147.142L212.729 147.031L212.499 147.167Z" fill="#A6A6A6"/>
<path d="M218.243 141.352C218.182 141.389 218.11 141.399 218.042 141.383C217.974 141.366 217.915 141.323 217.878 141.263C217.847 141.206 217.837 141.139 217.85 141.076C217.864 141.012 217.899 140.955 217.951 140.915L218.008 140.874C218.072 140.835 218.144 140.811 218.218 140.801C218.292 140.777 218.372 140.777 218.445 140.801C218.497 140.827 218.542 140.867 218.575 140.915C218.584 140.926 218.589 140.94 218.589 140.955C218.589 140.97 218.584 140.984 218.575 140.996C218.57 141.002 218.563 141.008 218.555 141.012C218.548 141.015 218.539 141.017 218.531 141.017C218.522 141.017 218.514 141.015 218.506 141.012C218.498 141.008 218.491 141.002 218.486 140.996C218.468 140.966 218.443 140.941 218.413 140.923C218.378 140.914 218.342 140.914 218.308 140.923C218.34 140.941 218.365 140.97 218.381 141.004C218.395 141.036 218.403 141.07 218.404 141.105C218.405 141.14 218.399 141.175 218.386 141.208C218.373 141.24 218.354 141.27 218.329 141.295C218.305 141.32 218.275 141.339 218.243 141.352ZM218.178 141.247C218.195 141.239 218.21 141.227 218.222 141.212C218.234 141.197 218.244 141.18 218.249 141.162C218.254 141.144 218.256 141.125 218.253 141.106C218.251 141.087 218.244 141.069 218.235 141.052C218.213 141.02 218.18 140.998 218.143 140.989C218.105 140.98 218.066 140.985 218.032 141.004C218.016 141.013 218.002 141.026 217.991 141.041C217.98 141.056 217.972 141.073 217.967 141.091C217.963 141.109 217.962 141.128 217.965 141.146C217.967 141.165 217.974 141.182 217.983 141.198C217.993 141.214 218.005 141.228 218.02 141.239C218.035 141.25 218.052 141.259 218.07 141.263C218.089 141.268 218.107 141.268 218.126 141.266C218.144 141.263 218.162 141.257 218.178 141.247Z" fill="#A6A6A6"/>
<path d="M217.991 140.696C217.911 140.743 217.817 140.766 217.724 140.761C217.683 140.759 217.644 140.748 217.609 140.729C217.573 140.709 217.543 140.681 217.521 140.647C217.503 140.61 217.494 140.57 217.494 140.529C217.494 140.489 217.503 140.448 217.521 140.412C217.566 140.332 217.63 140.265 217.708 140.217C217.789 140.171 217.881 140.145 217.975 140.144C218.016 140.146 218.055 140.156 218.09 140.176C218.126 140.196 218.156 140.224 218.178 140.258C218.196 140.296 218.205 140.337 218.205 140.379C218.205 140.421 218.196 140.463 218.178 140.501C218.131 140.579 218.067 140.646 217.991 140.696ZM217.772 140.323C217.715 140.356 217.668 140.403 217.635 140.461C217.625 140.479 217.619 140.5 217.619 140.521C217.619 140.543 217.625 140.563 217.635 140.582C217.644 140.601 217.66 140.617 217.678 140.627C217.697 140.637 217.719 140.641 217.74 140.639C217.809 140.645 217.877 140.628 217.935 140.59C217.993 140.554 218.04 140.504 218.072 140.444C218.082 140.426 218.088 140.405 218.088 140.383C218.088 140.362 218.082 140.341 218.072 140.323C218.072 140.323 218.024 140.274 217.967 140.266C217.898 140.267 217.831 140.287 217.772 140.323Z" fill="#A6A6A6"/>
<path d="M218.616 141.604C218.771 141.623 218.92 141.676 219.054 141.758C219.058 141.913 219.031 142.068 218.972 142.212C218.891 142.398 218.664 142.528 218.526 142.398C218.389 142.269 218.583 142.033 218.583 142.033C218.583 142.033 218.283 142.098 218.235 141.896C218.186 141.693 218.437 141.588 218.616 141.604Z" fill="#FFC727"/>
<path d="M216.478 139.775L218.716 143.595L218.779 143.558L216.541 139.738L216.478 139.775Z" fill="#FFC727"/>
<path d="M213.516 144.125C213.739 144.509 214.072 144.818 214.471 145.012C214.87 145.207 215.318 145.279 215.758 145.219C216.198 145.16 216.611 144.971 216.943 144.677C217.276 144.382 217.514 143.996 217.627 143.567C217.741 143.137 217.724 142.684 217.58 142.264C217.436 141.844 217.17 141.476 216.817 141.207C216.463 140.938 216.038 140.78 215.595 140.752C215.152 140.725 214.71 140.829 214.326 141.052C214.071 141.201 213.848 141.398 213.669 141.633C213.49 141.868 213.359 142.135 213.284 142.421C213.209 142.706 213.19 143.004 213.23 143.296C213.27 143.589 213.367 143.871 213.516 144.125ZM216.759 142.204C216.915 142.47 216.988 142.776 216.97 143.084C216.951 143.391 216.842 143.686 216.656 143.932C216.47 144.177 216.215 144.362 215.923 144.463C215.632 144.563 215.317 144.575 215.019 144.496C214.721 144.418 214.453 144.253 214.249 144.022C214.045 143.791 213.914 143.504 213.873 143.199C213.832 142.894 213.882 142.583 214.018 142.306C214.153 142.029 214.368 141.799 214.635 141.644C214.813 141.532 215.012 141.457 215.22 141.424C215.429 141.392 215.642 141.402 215.846 141.454C216.05 141.506 216.241 141.6 216.408 141.729C216.575 141.858 216.714 142.019 216.816 142.204H216.759Z" fill="#FFC727"/>
<path opacity="0.2" d="M213.516 144.125C213.739 144.509 214.072 144.818 214.471 145.012C214.87 145.207 215.318 145.279 215.758 145.219C216.198 145.16 216.611 144.971 216.943 144.677C217.276 144.382 217.514 143.996 217.627 143.567C217.741 143.137 217.724 142.684 217.58 142.264C217.436 141.844 217.17 141.476 216.817 141.207C216.463 140.938 216.038 140.78 215.595 140.752C215.152 140.725 214.71 140.829 214.326 141.052C214.071 141.201 213.848 141.398 213.669 141.633C213.49 141.868 213.359 142.135 213.284 142.421C213.209 142.706 213.19 143.004 213.23 143.296C213.27 143.589 213.367 143.871 213.516 144.125ZM216.759 142.204C216.915 142.47 216.988 142.776 216.97 143.084C216.951 143.391 216.842 143.686 216.656 143.932C216.47 144.177 216.215 144.362 215.923 144.463C215.632 144.563 215.317 144.575 215.019 144.496C214.721 144.418 214.453 144.253 214.249 144.022C214.045 143.791 213.914 143.504 213.873 143.199C213.832 142.894 213.882 142.583 214.018 142.306C214.153 142.029 214.368 141.799 214.635 141.644C214.813 141.532 215.012 141.457 215.22 141.424C215.429 141.392 215.642 141.402 215.846 141.454C216.05 141.506 216.241 141.6 216.408 141.729C216.575 141.858 216.714 142.019 216.816 142.204H216.759Z" fill="#050400"/>
<path d="M213.516 144.125L214.108 143.777C213.951 143.511 213.877 143.206 213.895 142.898C213.912 142.591 214.021 142.296 214.206 142.05C214.391 141.804 214.645 141.619 214.936 141.517C215.227 141.416 215.541 141.403 215.839 141.48C216.137 141.557 216.405 141.721 216.61 141.95C216.816 142.18 216.948 142.465 216.991 142.77C217.034 143.075 216.985 143.386 216.852 143.663C216.718 143.94 216.505 144.172 216.24 144.328C216.023 144.456 215.778 144.528 215.526 144.539V145.228C215.888 145.213 216.239 145.107 216.548 144.92C216.93 144.697 217.237 144.366 217.431 143.968C217.625 143.571 217.697 143.125 217.637 142.686C217.578 142.248 217.39 141.837 217.097 141.506C216.804 141.174 216.42 140.937 215.992 140.824C215.564 140.711 215.113 140.727 214.695 140.87C214.276 141.014 213.91 141.278 213.641 141.629C213.373 141.981 213.214 142.404 213.186 142.845C213.158 143.287 213.262 143.726 213.483 144.109L213.516 144.125Z" fill="#FFC727"/>
<path d="M214.627 142.236L215.056 142.35C215.076 142.353 215.094 142.361 215.11 142.372C215.126 142.384 215.139 142.398 215.148 142.416C215.157 142.433 215.163 142.452 215.164 142.471C215.165 142.491 215.161 142.51 215.154 142.528C215.154 142.601 215.113 142.674 215.097 142.747L215.446 142.836C215.461 142.768 215.48 142.7 215.502 142.634L215.551 142.431C215.561 142.409 215.578 142.392 215.6 142.382L216.175 142.172C216.194 142.163 216.214 142.159 216.234 142.159C216.254 142.159 216.275 142.162 216.293 142.17C216.312 142.177 216.329 142.189 216.344 142.203C216.358 142.217 216.37 142.234 216.378 142.253C216.387 142.271 216.392 142.291 216.392 142.312C216.393 142.332 216.388 142.353 216.38 142.371C216.371 142.39 216.359 142.406 216.343 142.419C216.327 142.433 216.309 142.442 216.289 142.447L215.891 142.609H215.851C215.851 142.707 215.794 142.804 215.77 142.909L216.127 142.99C216.156 143.002 216.181 143.022 216.2 143.047C216.273 143.177 216.346 143.307 216.427 143.436C216.456 143.467 216.473 143.507 216.473 143.55C216.473 143.592 216.456 143.633 216.427 143.663H216.37C216.328 143.672 216.285 143.665 216.247 143.644C216.21 143.623 216.182 143.59 216.167 143.55L216.021 143.307L215.21 143.136C215.216 143.159 215.228 143.179 215.245 143.193C215.263 143.208 215.285 143.216 215.308 143.217L215.591 143.282C215.627 143.29 215.658 143.312 215.677 143.342C215.697 143.372 215.704 143.409 215.697 143.445C215.693 143.463 215.684 143.48 215.672 143.495C215.661 143.51 215.646 143.522 215.629 143.531C215.612 143.539 215.593 143.544 215.574 143.545C215.555 143.545 215.536 143.541 215.518 143.534L215.081 143.404C215.081 143.404 215.04 143.404 215.032 143.404L214.837 143.08C214.827 143.058 214.822 143.035 214.822 143.011C214.822 142.987 214.827 142.963 214.837 142.942C214.837 142.836 214.837 142.731 214.91 142.626C214.983 142.52 214.91 142.561 214.862 142.553L214.627 142.488C214.609 142.485 214.591 142.479 214.576 142.469C214.561 142.459 214.549 142.445 214.539 142.43C214.53 142.414 214.524 142.397 214.522 142.379C214.521 142.361 214.523 142.343 214.529 142.326C214.536 142.303 214.549 142.283 214.566 142.268C214.583 142.252 214.604 142.241 214.627 142.236Z" fill="#455A64"/>
<path d="M214.383 142.601C214.436 142.571 214.498 142.563 214.557 142.579C214.615 142.595 214.665 142.634 214.695 142.686C214.726 142.739 214.733 142.802 214.717 142.86C214.702 142.919 214.663 142.968 214.61 142.999C214.559 143.028 214.497 143.036 214.44 143.021C214.382 143.006 214.333 142.969 214.302 142.917C214.272 142.864 214.264 142.802 214.279 142.743C214.294 142.684 214.331 142.633 214.383 142.601Z" fill="#455A64"/>
<path d="M227.454 138.758L224.981 134.541L218.802 137.428L221.908 142.739L227.454 138.758Z" fill="#FFC727"/>
<path opacity="0.2" d="M218.802 137.436L219.678 137.023L222.767 142.123L221.908 142.739L218.802 137.436Z" fill="#050400"/>
<path d="M203.923 146.874L206.397 151.09L212.575 148.204L209.47 142.893L203.923 146.874Z" fill="#FFC727"/>
<path opacity="0.2" d="M209.47 142.901L212.575 148.204L211.797 148.569L208.707 143.452L209.47 142.901Z" fill="#050400"/>
<path d="M216.386 118.949C215.859 117.993 215.324 117.052 214.764 116.111C214.205 115.171 213.483 114.206 212.81 113.257C212.81 113.257 212.737 113.257 212.761 113.257C213.264 114.23 213.694 115.228 214.237 116.176C214.78 117.125 215.34 118.122 215.859 119.12C216.889 121.066 218.008 122.963 219.029 124.917C219.029 124.982 219.167 124.917 219.143 124.86C218.328 122.843 217.408 120.87 216.386 118.949Z" fill="#263238"/>
<path d="M227.04 97.1785C226.854 97.3245 226.675 97.4866 226.489 97.6407C227.194 96.7163 227.851 95.7677 228.475 94.7947C228.475 94.7947 228.475 94.746 228.435 94.7947C227.575 95.7839 226.74 96.7893 225.937 97.8272C225.556 98.3218 225.127 98.8002 224.794 99.3029C224.462 99.8056 223.983 100.454 223.562 100.998C223.505 101.062 223.602 101.152 223.651 101.087C224.073 100.568 224.535 100.089 224.973 99.5867C225.41 99.084 225.71 98.6867 226.067 98.2245C226.214 98.1283 226.355 98.0227 226.489 97.9083C226.716 97.7218 226.927 97.5272 227.138 97.3245C227.551 96.919 227.948 96.5136 228.354 96.0758C227.924 96.4406 227.486 96.8136 227.04 97.1785Z" fill="#263238"/>
</svg>
