<svg width="22" height="18" viewBox="0 0 22 18" fill="none" xmlns="http://www.w3.org/2000/svg">
<path d="M11 14C12.3261 14 13.5979 13.4732 14.5355 12.5355C15.4732 11.5979 16 10.3261 16 9C16.0013 8.03225 15.7159 7.0858 15.18 6.28L18.76 2.71C18.8532 2.61676 18.9272 2.50607 18.9777 2.38425C19.0281 2.26243 19.0541 2.13186 19.0541 2C19.0541 1.86814 19.0281 1.73758 18.9777 1.61575C18.9272 1.49393 18.8532 1.38324 18.76 1.29C18.6668 1.19676 18.5561 1.1228 18.4342 1.07234C18.3124 1.02188 18.1819 0.995911 18.05 0.995911C17.9181 0.995911 17.7876 1.02188 17.6658 1.07234C17.5439 1.1228 17.4332 1.19676 17.34 1.29L13.72 4.87C12.9142 4.33407 11.9677 4.04874 11 4.05C9.6826 4.06318 8.42364 4.59577 7.49674 5.53203C6.56985 6.46829 6.04993 7.73254 6.05 9.05C6.04874 10.0178 6.33406 10.9642 6.87 11.77L3.29 15.29C3.1017 15.4783 2.99591 15.7337 2.99591 16C2.99591 16.2663 3.1017 16.5217 3.29 16.71C3.4783 16.8983 3.7337 17.0041 4 17.0041C4.2663 17.0041 4.5217 16.8983 4.71 16.71L8.28 13.13C9.08017 13.6836 10.0271 13.9865 11 14ZM14.05 9C14.0624 9.52006 13.9394 10.0344 13.693 10.4925C13.4465 10.9507 13.0852 11.3369 12.6445 11.6132C12.2038 11.8896 11.6988 12.0466 11.179 12.0688C10.6593 12.091 10.1427 11.9777 9.68 11.74L13.68 7.74C13.8934 8.12815 14.0196 8.55812 14.05 9ZM8 9C7.9876 8.47995 8.11064 7.9656 8.35705 7.50746C8.60345 7.04931 8.96476 6.66312 9.40549 6.38677C9.84623 6.11043 10.3512 5.95344 10.871 5.93122C11.3907 5.90899 11.9073 6.02229 12.37 6.26L8.37 10.26C8.15664 9.87185 8.03038 9.44189 8 9ZM2.3 13C1.68493 12.4004 1.14437 11.7289 0.69 11C0.277743 10.4109 0.0387171 9.71802 0 9C0.0113841 8.55618 0.117056 8.11985 0.31 7.72C0.517553 7.28139 0.765277 6.86293 1.05 6.47C1.75797 5.54554 2.58132 4.71547 3.5 4C5.60028 2.19949 8.23737 1.14465 11 1C11.7552 1.00253 12.5074 1.09654 13.24 1.28C13.3718 1.30724 13.4967 1.36081 13.6073 1.43748C13.7179 1.51416 13.8119 1.61237 13.8837 1.72624C13.9554 1.84011 14.0034 1.96728 14.0248 2.10015C14.0463 2.23302 14.0406 2.36884 14.0083 2.49948C13.976 2.63013 13.9176 2.7529 13.8367 2.86045C13.7558 2.968 13.6541 3.05811 13.5375 3.12539C13.4209 3.19267 13.292 3.23572 13.1584 3.25198C13.0248 3.26824 12.8893 3.25736 12.76 3.22C12.1839 3.07859 11.5932 3.00476 11 3C9.49894 3.04681 8.03247 3.46236 6.73 4.21C5.45659 4.91036 4.30226 5.80817 3.31 6.87C2.8406 7.36288 2.44636 7.92221 2.14 8.53C2.06869 8.67825 2.02143 8.8369 2 9C2.05785 9.33862 2.19114 9.65989 2.39 9.94C2.76294 10.5225 3.20258 11.0594 3.7 11.54C3.89361 11.7257 4.00554 11.9806 4.01116 12.2488C4.01679 12.517 3.91565 12.7764 3.73 12.97C3.54435 13.1636 3.28939 13.2755 3.02121 13.2812C2.75304 13.2868 2.49361 13.1857 2.3 13ZM22 9C21.9886 9.44383 21.8829 9.88015 21.69 10.28C21.4984 10.7167 21.2674 11.1351 21 11.53C20.2766 12.4576 19.4363 13.2878 18.5 14C16.3997 15.8005 13.7626 16.8554 11 17C10.2448 16.9975 9.49262 16.9035 8.76 16.72C8.51165 16.6482 8.30074 16.4831 8.17151 16.2592C8.04228 16.0353 8.00478 15.7701 8.06687 15.5191C8.12896 15.2682 8.28581 15.051 8.50453 14.9132C8.72325 14.7754 8.98684 14.7277 9.24 14.78C9.81614 14.9214 10.4068 14.9952 11 15C12.5011 14.9532 13.9675 14.5376 15.27 13.79C16.5434 13.0896 17.6977 12.1918 18.69 11.13C19.1594 10.6371 19.5536 10.0778 19.86 9.47C19.9313 9.32176 19.9786 9.16311 20 9C19.966 8.68202 19.8563 8.37682 19.68 8.11C19.36 7.56839 18.9624 7.07652 18.5 6.65C18.307 6.46933 18.1933 6.21956 18.184 5.95532C18.1746 5.69109 18.2702 5.43389 18.45 5.24C18.6307 5.04696 18.8804 4.93332 19.1447 4.92395C19.4089 4.91458 19.6661 5.01024 19.86 5.19C20.4719 5.75326 20.9976 6.40357 21.42 7.12C21.7631 7.69031 21.9621 8.33555 22 9Z" fill="#77887A"/>
</svg>
