<svg width="24" height="24" viewBox="0 0 24 24" fill="none" xmlns="http://www.w3.org/2000/svg">
<path fill-rule="evenodd" clip-rule="evenodd" d="M17.6411 2.88809C17.0476 1.9565 15.8113 1.68242 14.8797 2.27591C14.3775 2.59585 13.6272 3.37386 13.0938 4.22453C12.8296 4.64585 12.6377 5.05543 12.5508 5.40641C12.5153 5.55005 12.5002 5.67154 12.4999 5.77369C12.4999 5.77553 12.4999 5.77737 12.4999 5.7792C12.5003 5.9293 12.5332 6.03716 12.5808 6.11189C12.6611 6.23803 12.8449 6.36596 13.2075 6.43715C13.5623 6.5068 14.0146 6.50595 14.5081 6.44455C15.5045 6.32059 16.5267 5.96941 17.0289 5.64947C17.9605 5.05599 18.2346 3.81967 17.6411 2.88809ZM12 6.95649C12.2844 7.20929 12.6524 7.34727 13.0149 7.41842C13.5111 7.51585 14.0787 7.50568 14.6316 7.4369C15.7278 7.30052 16.904 6.91478 17.5662 6.49286C18.9636 5.60264 19.3747 3.74817 18.4845 2.35079C17.5943 0.953412 15.7398 0.542286 14.3424 1.43251C13.6802 1.85443 12.8335 2.75734 12.2466 3.69325C12.1597 3.83187 12.0768 3.97378 12 4.11752C11.9232 3.97378 11.8403 3.83187 11.7534 3.69325C11.1665 2.75734 10.3198 1.85443 9.65757 1.43251C8.26019 0.542286 6.40572 0.953412 5.5155 2.35079C4.62527 3.74817 5.03639 5.60264 6.43377 6.49286C7.09604 6.91478 8.27217 7.30052 9.36843 7.4369C9.92126 7.50568 10.4889 7.51585 10.9851 7.41842C11.3476 7.34727 11.7156 7.20929 12 6.95649ZM11.5001 5.7792C11.5001 5.77736 11.5001 5.77552 11.5001 5.77369C11.4999 5.67154 11.4847 5.55005 11.4492 5.40641C11.3623 5.05543 11.1704 4.64585 10.9062 4.22453C10.3728 3.37386 9.62248 2.59585 9.12027 2.27591C8.18868 1.68242 6.95237 1.9565 6.35889 2.88809C5.7654 3.81967 6.03949 5.05599 6.97107 5.64947C7.47328 5.96941 8.49548 6.32059 9.49189 6.44455C9.9854 6.50595 10.4377 6.5068 10.7925 6.43715C11.1551 6.36596 11.3389 6.23803 11.4192 6.11189C11.4668 6.03716 11.4997 5.9293 11.5001 5.7792ZM1.5 7.99999C1.5 7.72385 1.72386 7.49999 2 7.49999H12H22C22.2761 7.49999 22.5 7.72385 22.5 7.99999V12C22.5 12.2761 22.2761 12.5 22 12.5H21.5V20C21.5 20.8284 20.8284 21.5 20 21.5H12H4C3.17157 21.5 2.5 20.8284 2.5 20V12.5H2C1.72386 12.5 1.5 12.2761 1.5 12V7.99999ZM3.5 12.5V20C3.5 20.2761 3.72386 20.5 4 20.5H11.5V12.5H3.5ZM12.5 12.5V20.5H20C20.2761 20.5 20.5 20.2761 20.5 20V12.5H12.5ZM21.5 11.5H21H12.5V8.49999H21.5V11.5ZM11.5 8.49999V11.5H3H2.5V8.49999H11.5Z" fill="black"/>
</svg>
