<svg width="14" height="14" viewBox="0 0 14 14" fill="none" xmlns="http://www.w3.org/2000/svg">
<path fill-rule="evenodd" clip-rule="evenodd" d="M11.6667 7.66668C12.7713 7.66668 13.6667 8.56211 13.6667 9.66668V11.6667C13.6667 12.7712 12.7713 13.6667 11.6667 13.6667H9.66671C8.56214 13.6667 7.66671 12.7712 7.66671 11.6667V9.66668C7.66671 8.56211 8.56214 7.66668 9.66671 7.66668H11.6667ZM4.33337 7.66668C5.43794 7.66668 6.33337 8.56211 6.33337 9.66668V11.6667C6.33337 12.7712 5.43794 13.6667 4.33337 13.6667H2.33337C1.2288 13.6667 0.333374 12.7712 0.333374 11.6667V9.66668C0.333374 8.56211 1.2288 7.66668 2.33337 7.66668H4.33337ZM11.6667 9.00001H9.66671C9.29852 9.00001 9.00004 9.29849 9.00004 9.66668V11.6667C9.00004 12.0349 9.29852 12.3333 9.66671 12.3333H11.6667C12.0349 12.3333 12.3334 12.0349 12.3334 11.6667V9.66668C12.3334 9.29849 12.0349 9.00001 11.6667 9.00001ZM4.33337 9.00001H2.33337C1.96518 9.00001 1.66671 9.29849 1.66671 9.66668V11.6667C1.66671 12.0349 1.96518 12.3333 2.33337 12.3333H4.33337C4.70156 12.3333 5.00004 12.0349 5.00004 11.6667V9.66668C5.00004 9.29849 4.70156 9.00001 4.33337 9.00001ZM4.33337 0.333344C5.43794 0.333344 6.33337 1.22877 6.33337 2.33334V4.33334C6.33337 5.43791 5.43794 6.33334 4.33337 6.33334H2.33337C1.2288 6.33334 0.333374 5.43791 0.333374 4.33334V2.33334C0.333374 1.22877 1.2288 0.333344 2.33337 0.333344H4.33337ZM11.6667 0.333344C12.7713 0.333344 13.6667 1.22877 13.6667 2.33334V4.33334C13.6667 5.43791 12.7713 6.33334 11.6667 6.33334H9.66671C8.56214 6.33334 7.66671 5.43791 7.66671 4.33334V2.33334C7.66671 1.22877 8.56214 0.333344 9.66671 0.333344H11.6667ZM4.33337 1.66668H2.33337C1.96518 1.66668 1.66671 1.96515 1.66671 2.33334V4.33334C1.66671 4.70153 1.96518 5.00001 2.33337 5.00001H4.33337C4.70156 5.00001 5.00004 4.70153 5.00004 4.33334V2.33334C5.00004 1.96515 4.70156 1.66668 4.33337 1.66668ZM11.6667 1.66668H9.66671C9.29852 1.66668 9.00004 1.96515 9.00004 2.33334V4.33334C9.00004 4.70153 9.29852 5.00001 9.66671 5.00001H11.6667C12.0349 5.00001 12.3334 4.70153 12.3334 4.33334V2.33334C12.3334 1.96515 12.0349 1.66668 11.6667 1.66668Z" fill="black"/>
</svg>
