<svg width="25" height="25" viewBox="0 0 25 25" fill="none" xmlns="http://www.w3.org/2000/svg">
<path d="M12.0349 19.4563L22.1771 16.7387M1.58057 3.62256L2.54649 3.36374C3.61342 3.07786 4.7101 3.71102 4.99598 4.77795L8.36063 17.335M16.0187 11.1419L14.9834 7.27821M14.9834 7.27821L13.9227 9.11533M14.9834 7.27821L16.8205 8.33887M20.1666 5.37174L21.4607 10.2014C21.8895 11.8018 20.9398 13.4468 19.3394 13.8756L14.5097 15.1697C12.9093 15.5985 11.2643 14.6488 10.8355 13.0484L9.54141 8.21875C9.11258 6.61835 10.0623 4.97334 11.6627 4.54452L16.4924 3.25042C18.0928 2.8216 19.7378 3.77134 20.1666 5.37174Z" stroke="black" stroke-width="1.8" stroke-linecap="round" stroke-linejoin="round"/>
<circle cx="9.13713" cy="20.2326" r="3" transform="rotate(-15 9.13713 20.2326)" stroke="black" stroke-width="1.8"/>
</svg>
