<svg width="24" height="23" viewBox="0 0 24 23" fill="none" xmlns="http://www.w3.org/2000/svg">
<path d="M11.3119 0.836797C11.573 0.234637 12.427 0.234639 12.6881 0.836799L15.4899 7.29793C15.5985 7.54854 15.8349 7.72025 16.1068 7.74616L23.1175 8.4142C23.7709 8.47646 24.0348 9.28862 23.5428 9.72303L18.2637 14.3843C18.0589 14.5651 17.9686 14.8429 18.028 15.1095L19.5591 21.9835C19.7018 22.6242 19.0109 23.1261 18.4457 22.7924L12.3813 19.2121C12.1461 19.0732 11.8539 19.0732 11.6187 19.2121L5.55427 22.7924C4.98908 23.1261 4.29823 22.6242 4.44092 21.9835L5.972 15.1095C6.03138 14.8429 5.94111 14.5651 5.73634 14.3843L0.457239 9.72303C-0.0347593 9.28862 0.229127 8.47646 0.882504 8.4142L7.8932 7.74616C8.16513 7.72025 8.40147 7.54854 8.51014 7.29792L11.3119 0.836797Z" fill="#FFEEB4"/>
</svg>
