<svg width="22" height="22" viewBox="0 0 22 22" fill="none" xmlns="http://www.w3.org/2000/svg">
<path fill-rule="evenodd" clip-rule="evenodd" d="M1.9001 3.0001C1.9001 2.39258 2.39258 1.9001 3.0001 1.9001H9.17167C9.46341 1.9001 9.7432 2.01599 9.94949 2.22228L18.9495 11.2223C19.3791 11.6519 19.3791 12.3483 18.9495 12.7779L12.7779 18.9495C12.3483 19.3791 11.6519 19.3791 11.2223 18.9495L2.22228 9.94949C2.01599 9.7432 1.9001 9.46341 1.9001 9.17167V3.0001ZM3.0001 0.100098C1.39847 0.100098 0.100098 1.39847 0.100098 3.0001V9.17167C0.100098 9.9408 0.405633 10.6784 0.949488 11.2223L9.94949 20.2223C11.082 21.3548 12.9182 21.3548 14.0507 20.2223L20.2223 14.0507C21.3548 12.9182 21.3548 11.082 20.2223 9.94949L11.2223 0.949488C10.6784 0.405633 9.9408 0.100098 9.17167 0.100098H3.0001ZM5.9001 7.0001C5.9001 6.39258 6.39258 5.9001 7.0001 5.9001C7.60761 5.9001 8.1001 6.39258 8.1001 7.0001C8.1001 7.60761 7.60761 8.1001 7.0001 8.1001C6.39258 8.1001 5.9001 7.60761 5.9001 7.0001ZM7.0001 4.1001C5.39847 4.1001 4.1001 5.39847 4.1001 7.0001C4.1001 8.60172 5.39847 9.9001 7.0001 9.9001C8.60172 9.9001 9.9001 8.60172 9.9001 7.0001C9.9001 5.39847 8.60172 4.1001 7.0001 4.1001Z" fill="black"/>
</svg>
