<svg width="117" height="71" viewBox="0 0 117 71" fill="none" xmlns="http://www.w3.org/2000/svg">
<path d="M-77.9266 142.776C-83.1459 165.542 -81.036 203.737 -60.3291 264.712L-123.002 137.657C-138.033 107.185 -136.563 71.1658 -119.099 42.02L-106.214 20.5152C-91.5485 -3.95957 -67.1271 -21.0044 -39.0963 -26.3292L-18.8791 -30.1696C17.4251 -37.066 54.5113 -22.8707 76.9324 6.50358C91.5082 25.5996 98.5305 49.3999 96.6554 73.3498L95.0136 94.3206C93.9549 107.843 95.6581 121.439 100.02 134.282L114.551 177.072C117.628 186.134 117.65 195.954 114.613 205.03C106.504 229.268 79.4368 241.428 55.9303 231.394L51.2555 229.398C38.5918 223.992 28.8262 213.454 24.3986 200.416L18.7046 183.649C12.2223 164.561 -0.6073 148.274 -17.648 137.504L-22.567 134.395C-43.7115 121.031 -72.3368 118.395 -77.9266 142.776Z" fill="#FFEEB4"/>
</svg>
